<?xml version="1.0" encoding="UTF-8"?>
<!-- Generator: visioncortex VTracer 0.6.3 -->
<svg version="1.1" xmlns="http://www.w3.org/2000/svg" width="1280" height="909">
<path d="M0 0 C422.4 0 844.8 0 1280 0 C1280 299.97 1280 599.94 1280 909 C857.6 909 435.2 909 0 909 C0 609.03 0 309.06 0 0 Z " fill="#F1F2F3" transform="translate(0,0)"/>
<path d="M0 0 C0.68 -0 1.36 -0 2.07 -0.01 C4.37 -0.01 6.68 -0.01 8.99 -0.01 C10.65 -0.01 12.31 -0.01 13.97 -0.02 C18.56 -0.03 23.14 -0.03 27.73 -0.03 C32.66 -0.03 37.6 -0.04 42.54 -0.04 C53.34 -0.06 64.15 -0.06 74.95 -0.07 C81.69 -0.07 88.43 -0.08 95.17 -0.08 C113.82 -0.09 132.46 -0.1 151.11 -0.11 C152.9 -0.11 152.9 -0.11 154.73 -0.11 C155.93 -0.11 157.12 -0.11 158.36 -0.11 C160.78 -0.11 163.21 -0.11 165.63 -0.11 C166.84 -0.11 168.04 -0.11 169.28 -0.11 C188.79 -0.11 208.3 -0.13 227.81 -0.15 C247.82 -0.18 267.84 -0.19 287.85 -0.19 C299.09 -0.19 310.33 -0.2 321.58 -0.22 C331.15 -0.23 340.72 -0.24 350.29 -0.23 C355.18 -0.22 360.07 -0.23 364.96 -0.24 C369.42 -0.25 373.89 -0.25 378.36 -0.24 C379.98 -0.24 381.61 -0.24 383.23 -0.25 C385.42 -0.26 387.62 -0.25 389.81 -0.24 C391.03 -0.24 392.26 -0.24 393.51 -0.24 C396.47 0.13 396.47 0.13 398.36 1.51 C399.98 3.88 399.88 5.31 399.47 8.13 C398.15 10.64 398.15 10.64 396.34 13.26 C393.94 16.86 391.69 20.44 389.66 24.26 C384.23 34.39 378.28 44.25 372.22 54.01 C369.31 58.69 366.64 63.45 364.03 68.31 C361.62 72.65 358.98 76.84 356.35 81.06 C354.33 84.35 352.46 87.7 350.61 91.1 C349.48 93.11 348.27 95.06 347.03 97.01 C344.48 101.02 342.25 105.17 340 109.35 C338.12 112.77 336.11 116.09 334.09 119.42 C332.23 122.53 330.44 125.67 328.66 128.82 C325.51 134.37 322.26 139.85 318.97 145.31 C316.08 150.1 313.23 154.93 310.41 159.76 C307.41 164.88 304.35 169.96 301.22 175.01 C298.38 179.59 295.75 184.23 293.2 188.97 C289.62 195.5 285.83 201.92 282.08 208.36 C280.35 211.34 278.62 214.32 276.89 217.31 C275.67 219.42 274.44 221.52 273.22 223.63 C272.65 224.61 272.09 225.59 271.5 226.6 C268.15 232.36 264.68 238.01 261.05 243.6 C258.88 247.06 256.99 250.65 255.07 254.25 C253.3 257.44 251.4 260.53 249.47 263.63 C247.01 267.58 244.66 271.53 242.47 275.63 C239.64 280.92 236.51 285.99 233.34 291.08 C231.81 293.57 230.36 296.07 228.97 298.63 C226.95 302.34 224.76 305.92 222.53 309.51 C219.57 314.28 216.81 319.11 214.16 324.06 C209.13 333.2 203.72 342.15 198.22 351.01 C195.31 355.69 192.63 360.46 190.03 365.32 C188.27 368.49 186.38 371.56 184.47 374.63 C181.44 379.5 178.59 384.43 175.89 389.5 C172.68 395.45 169.21 401.18 165.59 406.88 C162.22 412.23 159.04 417.62 156.06 423.21 C153.71 427.52 151.2 431.73 148.71 435.95 C144.3 443.4 139.95 450.88 135.6 458.36 C132.97 462.88 130.33 467.39 127.61 471.86 C127.19 472.55 126.77 473.24 126.34 473.95 C125.58 475.19 124.81 476.43 124.04 477.67 C122.32 480.48 121.18 482.92 120.47 486.13 C121.04 486.06 121.6 485.99 122.19 485.92 C129.38 485.11 136.51 484.95 143.74 484.93 C144.98 484.92 146.22 484.92 147.49 484.91 C150.1 484.9 152.7 484.9 155.3 484.89 C157.96 484.88 160.63 484.87 163.29 484.85 C167.15 484.82 171 484.81 174.86 484.8 C176.05 484.79 177.24 484.78 178.47 484.77 C179.58 484.77 180.69 484.77 181.83 484.77 C182.8 484.77 183.77 484.77 184.77 484.76 C189.55 485.41 192.96 488.4 196.66 491.32 C197.44 491.94 198.23 492.56 199.03 493.19 C199.84 493.83 200.64 494.47 201.47 495.13 C202.22 495.73 202.97 496.33 203.75 496.94 C207.45 499.9 211.15 502.87 214.84 505.85 C221.52 511.23 228.26 516.52 235.09 521.69 C240.9 526.1 246.55 530.64 252.08 535.39 C255.66 538.46 259.3 541.4 263.03 544.26 C270.67 550.12 278.22 556.09 285.72 562.13 C286.59 562.83 287.46 563.53 288.36 564.26 C290.71 566.35 292.33 568 292.73 571.21 C292.74 572.01 292.74 572.81 292.75 573.64 C292.76 575.02 292.76 575.02 292.78 576.44 C292.78 577.45 292.79 578.46 292.79 579.51 C292.8 580.58 292.81 581.65 292.82 582.75 C292.85 586.3 292.87 589.86 292.88 593.41 C292.9 595.9 292.92 598.39 292.94 600.87 C292.98 606.11 293.02 611.34 293.05 616.58 C293.09 624.51 293.15 632.45 293.21 640.38 C293.39 664.8 293.39 664.8 293.44 676.33 C293.45 681.13 293.5 685.94 293.55 690.74 C293.57 693.21 293.58 695.69 293.6 698.16 C293.63 699.9 293.63 699.9 293.65 701.67 C293.66 702.73 293.66 703.8 293.67 704.9 C293.68 705.84 293.69 706.78 293.7 707.75 C293.47 710.13 293.47 710.13 291.47 713.13 C288.81 713.51 288.81 713.51 285.35 713.51 C284.03 713.52 282.72 713.52 281.36 713.53 C279.89 713.53 278.42 713.52 276.94 713.51 C275.39 713.52 273.83 713.52 272.28 713.53 C267.99 713.54 263.71 713.53 259.42 713.52 C254.81 713.52 250.19 713.53 245.57 713.54 C236.52 713.55 227.47 713.55 218.42 713.54 C211.07 713.53 203.72 713.53 196.36 713.53 C194.79 713.53 194.79 713.53 193.2 713.53 C191.07 713.54 188.95 713.54 186.83 713.54 C166.9 713.55 146.98 713.54 127.06 713.52 C109.95 713.51 92.84 713.51 75.73 713.52 C55.88 713.54 36.04 713.54 16.19 713.54 C14.07 713.53 11.96 713.53 9.84 713.53 C8.8 713.53 7.76 713.53 6.69 713.53 C-0.66 713.53 -8 713.53 -15.35 713.54 C-24.3 713.55 -33.25 713.55 -42.2 713.53 C-46.77 713.52 -51.34 713.52 -55.91 713.53 C-60.09 713.54 -64.27 713.53 -68.45 713.52 C-69.97 713.51 -71.48 713.52 -73 713.52 C-75.05 713.53 -77.1 713.52 -79.16 713.51 C-80.3 713.51 -81.44 713.51 -82.62 713.51 C-85.86 713.09 -87.09 712.21 -89.53 710.13 C-93.04 709.67 -96.18 710 -99.53 711.13 C-101.64 713.38 -102.36 715.21 -103.53 718.13 C-104.19 718.13 -104.85 718.13 -105.53 718.13 C-105.78 718.71 -106.03 719.29 -106.29 719.89 C-111.24 728.83 -122.22 734.31 -131.67 737.04 C-140.5 739.02 -148.87 739.6 -157.91 739.51 C-158.92 739.5 -158.92 739.5 -159.96 739.49 C-176.91 739.37 -193.51 737.65 -207.53 727.13 C-206.91 723.37 -205.18 720.94 -202.97 717.88 C-202.33 716.99 -201.69 716.1 -201.03 715.18 C-200.53 714.5 -200.04 713.83 -199.53 713.13 C-203.21 711.91 -206.76 711.78 -210.59 711.57 C-211.33 711.53 -212.06 711.48 -212.81 711.44 C-216.67 711.21 -216.67 711.21 -220.53 711.13 C-221.19 711.79 -221.85 712.45 -222.53 713.13 C-224.7 713.38 -224.7 713.38 -227.45 713.38 C-229.03 713.39 -229.03 713.39 -230.63 713.4 C-231.79 713.39 -232.95 713.39 -234.14 713.39 C-235.37 713.39 -236.59 713.39 -237.85 713.39 C-241.26 713.4 -244.67 713.4 -248.08 713.39 C-251.76 713.39 -255.43 713.4 -259.1 713.4 C-266.3 713.41 -273.51 713.41 -280.71 713.4 C-286.56 713.4 -292.41 713.4 -298.26 713.4 C-299.09 713.4 -299.92 713.4 -300.78 713.4 C-302.47 713.4 -304.16 713.4 -305.85 713.4 C-321.7 713.41 -337.55 713.4 -353.4 713.39 C-367.02 713.38 -380.63 713.38 -394.24 713.39 C-410.03 713.4 -425.83 713.41 -441.62 713.4 C-443.3 713.4 -444.99 713.4 -446.67 713.4 C-447.91 713.4 -447.91 713.4 -449.18 713.4 C-455.03 713.4 -460.87 713.4 -466.72 713.4 C-473.84 713.41 -480.96 713.41 -488.08 713.4 C-491.72 713.39 -495.35 713.39 -498.99 713.4 C-502.92 713.4 -506.86 713.4 -510.8 713.39 C-511.95 713.39 -513.11 713.39 -514.3 713.4 C-515.35 713.39 -516.4 713.39 -517.48 713.38 C-518.39 713.38 -519.3 713.38 -520.24 713.38 C-522.53 713.13 -522.53 713.13 -525.53 711.13 C-525.83 708.6 -525.92 706.32 -525.89 703.79 C-525.89 703.03 -525.9 702.26 -525.9 701.47 C-525.91 698.89 -525.89 696.32 -525.87 693.74 C-525.87 691.9 -525.87 690.05 -525.87 688.21 C-525.87 683.2 -525.86 678.18 -525.84 673.17 C-525.82 667.93 -525.82 662.7 -525.81 657.46 C-525.8 647.54 -525.78 637.62 -525.75 627.7 C-525.71 616.41 -525.7 605.12 -525.68 593.83 C-525.65 570.6 -525.6 547.36 -525.53 524.13 C-527.36 524.13 -527.36 524.13 -529.22 524.12 C-558.1 524.07 -586.98 523.99 -615.85 523.9 C-619.41 523.89 -622.96 523.88 -626.51 523.87 C-627.22 523.87 -627.93 523.86 -628.66 523.86 C-640.12 523.83 -651.58 523.8 -663.03 523.78 C-674.79 523.76 -686.54 523.73 -698.3 523.68 C-704.9 523.66 -711.51 523.64 -718.11 523.63 C-724.32 523.63 -730.54 523.61 -736.75 523.58 C-739.03 523.57 -741.31 523.56 -743.6 523.57 C-746.71 523.57 -749.82 523.55 -752.93 523.53 C-753.84 523.54 -754.75 523.54 -755.68 523.54 C-760.4 523.49 -763.78 523.33 -767.53 520.13 C-768.14 517.29 -768.14 517.29 -768.12 513.78 C-768.12 513.13 -768.12 512.49 -768.12 511.82 C-768.12 509.67 -768.09 507.52 -768.05 505.37 C-768.05 503.84 -768.04 502.32 -768.04 500.79 C-768.03 496.68 -767.99 492.57 -767.93 488.46 C-767.89 484.13 -767.87 479.81 -767.84 475.49 C-767.71 454.36 -767.44 433.23 -766.95 412.12 C-766.64 398.26 -766.48 384.41 -766.4 370.55 C-766.37 364.53 -766.32 358.51 -766.28 352.48 C-766.23 346.5 -766.21 340.51 -766.2 334.52 C-766.19 330.77 -766.16 327.03 -766.12 323.28 C-766.11 321.52 -766.11 319.76 -766.11 317.99 C-766.11 315.56 -766.09 313.13 -766.06 310.7 C-766.07 309.99 -766.07 309.27 -766.08 308.54 C-766.02 305.45 -765.79 303.5 -763.98 300.95 C-760.66 298.48 -757.77 298.58 -753.78 298.63 C-753 298.62 -752.21 298.62 -751.4 298.61 C-748.77 298.6 -746.13 298.61 -743.5 298.63 C-741.61 298.63 -739.73 298.62 -737.84 298.61 C-732.71 298.6 -727.58 298.61 -722.45 298.63 C-717.09 298.64 -711.73 298.63 -706.37 298.63 C-697.37 298.63 -688.37 298.64 -679.36 298.66 C-668.95 298.69 -658.53 298.69 -648.11 298.68 C-638.1 298.67 -628.09 298.68 -618.08 298.69 C-613.81 298.7 -609.55 298.7 -605.28 298.69 C-600.26 298.69 -595.25 298.7 -590.23 298.72 C-588.38 298.72 -586.54 298.72 -584.69 298.72 C-582.18 298.71 -579.67 298.73 -577.15 298.74 C-576.05 298.73 -576.05 298.73 -574.93 298.73 C-570 298.79 -570 298.79 -567.84 300.36 C-566.15 302.65 -566.17 303.96 -566.19 306.79 C-566.19 307.73 -566.19 308.67 -566.19 309.64 C-566.21 310.65 -566.22 311.66 -566.24 312.71 C-566.24 313.74 -566.25 314.78 -566.25 315.85 C-566.27 319.18 -566.31 322.5 -566.34 325.82 C-566.36 328.07 -566.37 330.32 -566.39 332.57 C-566.42 338.09 -566.47 343.61 -566.53 349.13 C-522.3 349.23 -478.07 349.28 -433.84 349.26 C-428.62 349.26 -423.4 349.26 -418.18 349.25 C-417.14 349.25 -416.1 349.25 -415.03 349.25 C-398.2 349.25 -381.36 349.28 -364.53 349.32 C-347.26 349.36 -329.99 349.37 -312.72 349.34 C-302.06 349.32 -291.4 349.34 -280.74 349.39 C-273.44 349.42 -266.13 349.41 -258.83 349.38 C-254.61 349.36 -250.39 349.36 -246.17 349.4 C-242.31 349.44 -238.45 349.43 -234.59 349.38 C-233.2 349.38 -231.8 349.38 -230.4 349.41 C-226.26 349.49 -222.49 349.42 -218.53 348.13 C-215.62 345.13 -214.14 341.95 -212.53 338.13 C-211.75 336.82 -210.95 335.53 -210.11 334.25 C-209.73 333.65 -209.35 333.05 -208.96 332.43 C-208.57 331.82 -208.18 331.2 -207.78 330.57 C-203.88 324.37 -200.12 318.1 -196.43 311.78 C-189.69 300.26 -182.95 288.74 -175.66 277.57 C-172.63 272.94 -169.9 268.22 -167.3 263.34 C-163.46 256.37 -159.26 249.61 -155.15 242.81 C-153.03 239.29 -150.92 235.77 -148.81 232.25 C-144.35 224.79 -139.84 217.35 -135.27 209.95 C-132.65 205.7 -130.09 201.42 -127.53 197.13 C-126.53 195.46 -125.53 193.8 -124.53 192.13 C-124.03 191.3 -123.53 190.47 -123.02 189.61 C-119.87 184.36 -116.72 179.12 -113.57 173.87 C-113.05 173 -113.05 173 -112.52 172.1 C-111.76 170.85 -111.01 169.59 -110.25 168.33 C-108.13 164.79 -106 161.25 -103.88 157.71 C-98.3 148.37 -92.67 139.07 -87.02 129.78 C-80.8 119.54 -74.64 109.28 -68.59 98.94 C-62.16 87.97 -55.5 77.13 -48.9 66.27 C-43.41 57.24 -37.95 48.2 -32.53 39.13 C-31.47 37.36 -30.41 35.59 -29.34 33.82 C-28.88 33.04 -28.41 32.26 -27.93 31.46 C-23.53 24.13 -23.53 24.13 -22.03 21.64 C-21.02 19.95 -20.02 18.26 -19.03 16.56 C-9.31 0.01 -9.31 0.01 0 0 Z " fill="#F9FCFE" transform="translate(825.5315160751343,85.86857223510742)"/>
<path d="M0 0 C1.22 -0 2.44 -0.01 3.7 -0.01 C5.06 -0.01 6.41 -0.01 7.77 -0.01 C9.19 -0.01 10.62 -0.02 12.04 -0.02 C15.92 -0.03 19.79 -0.03 23.67 -0.03 C26.9 -0.03 30.13 -0.04 33.36 -0.04 C40.98 -0.05 48.6 -0.05 56.22 -0.05 C64.08 -0.05 71.95 -0.06 79.82 -0.08 C86.57 -0.09 93.32 -0.1 100.07 -0.1 C104.11 -0.09 108.14 -0.1 112.17 -0.11 C115.97 -0.12 119.76 -0.12 123.55 -0.11 C124.94 -0.11 126.34 -0.11 127.73 -0.12 C129.63 -0.13 131.53 -0.12 133.42 -0.11 C135.02 -0.11 135.02 -0.11 136.65 -0.12 C139.15 0.13 139.15 0.13 141.15 2.13 C141.39 4.39 141.39 4.39 141.37 7.23 C141.37 8.82 141.37 8.82 141.37 10.44 C141.36 11.59 141.35 12.74 141.34 13.92 C141.34 15.1 141.34 16.27 141.33 17.48 C141.32 21.24 141.3 25 141.27 28.76 C141.26 31.3 141.25 33.85 141.25 36.39 C141.22 42.64 141.19 48.89 141.15 55.13 C136.77 55.16 132.39 55.18 128.01 55.19 C126.52 55.19 125.03 55.2 123.54 55.21 C121.4 55.22 119.26 55.23 117.12 55.23 C115.84 55.24 114.55 55.24 113.22 55.25 C110.15 55.13 110.15 55.13 108.15 54.13 C108.12 53.47 108.1 52.81 108.07 52.13 C107.96 49.15 107.83 46.17 107.71 43.2 C107.67 42.16 107.63 41.11 107.59 40.04 C107.55 39.05 107.51 38.06 107.46 37.04 C107.43 36.13 107.39 35.21 107.35 34.27 C107.38 32.15 107.38 32.15 106.15 31.13 C104.65 31.04 103.15 31.01 101.64 31 C100.69 31 99.73 31 98.74 30.99 C97.7 31 96.66 31 95.59 31 C94.52 31 93.46 31 92.37 31 C90.12 31 87.87 31 85.62 31 C82.16 31.01 78.71 31 75.25 31 C73.07 31 70.89 31 68.71 31 C67.67 31 66.63 31 65.55 30.99 C64.12 31 64.12 31 62.65 31 C61.8 31.01 60.96 31.01 60.08 31.01 C58.14 30.92 58.14 30.92 57.15 32.13 C57.05 34.64 57.01 37.12 57.02 39.63 C57.01 40.76 57.01 40.76 57.01 41.91 C57.01 43.5 57.01 45.09 57.02 46.68 C57.02 49.12 57.02 51.57 57.01 54.01 C57.01 55.55 57.01 57.09 57.02 58.63 C57.01 59.74 57.01 59.74 57.01 60.86 C56.72 64.29 56.72 64.29 58.15 67.13 C61.01 67.27 63.85 67.34 66.71 67.38 C68.47 67.41 70.24 67.45 72 67.48 C74.8 67.53 77.59 67.57 80.39 67.61 C83.08 67.65 85.77 67.7 88.46 67.75 C89.3 67.76 90.14 67.77 91 67.78 C96.92 67.91 96.92 67.91 99.15 70.13 C99.37 72.84 99.37 72.84 99.34 76.24 C99.34 77.45 99.33 78.66 99.32 79.91 C99.3 81.81 99.3 81.81 99.27 83.76 C99.26 85.04 99.25 86.32 99.25 87.63 C99.22 90.8 99.19 93.97 99.15 97.13 C97.29 97.17 97.29 97.17 95.4 97.21 C90.83 97.3 86.26 97.4 81.69 97.51 C79.7 97.55 77.72 97.59 75.74 97.63 C72.9 97.69 70.06 97.75 67.21 97.82 C66.32 97.83 65.43 97.85 64.51 97.87 C60.51 97.57 60.51 97.57 57.15 99.13 C57.05 101.99 57.01 104.83 57.02 107.69 C57.01 108.98 57.01 108.98 57.01 110.3 C57.01 112.12 57.01 113.94 57.02 115.76 C57.02 118.56 57.02 121.35 57.01 124.14 C57.01 125.91 57.01 127.68 57.02 129.44 C57.01 130.7 57.01 130.7 57.01 131.99 C56.91 136.19 56.91 136.19 58.15 140.13 C74.32 140.13 90.49 140.13 107.15 140.13 C107.48 132.21 107.81 124.29 108.15 116.13 C119.04 115.8 129.93 115.47 141.15 115.13 C142.14 113.15 142.14 113.15 143.15 111.13 C150.21 102.11 160.21 97.65 171.26 95.6 C184.21 94.05 196.83 94.6 209.15 99.13 C209.12 90.7 208.15 84.37 202.15 78.13 C195.57 73.7 187.11 74.18 179.52 75.64 C175.56 76.81 173.43 77.87 170.36 80.78 C167.15 83.13 167.15 83.13 163.55 83.29 C162.27 83.07 160.98 82.86 159.65 82.63 C158.96 82.52 158.27 82.42 157.56 82.3 C155.42 81.95 153.28 81.55 151.15 81.13 C150.45 81 149.76 80.86 149.04 80.72 C145.06 79.93 141.1 79.06 137.15 78.13 C136.43 76.44 136.43 76.44 136.15 74.13 C140 67.49 145.66 62.16 152.15 58.13 C152.85 57.69 153.55 57.25 154.28 56.8 C173.18 46.22 198.55 46.64 219.15 51.13 C230.8 54.47 237.91 58.98 243.86 69.55 C248.88 79.64 249.3 89.54 249.46 100.63 C249.49 101.82 249.51 103.01 249.53 104.23 C249.59 108.01 249.65 111.79 249.71 115.57 C249.75 118.14 249.8 120.71 249.84 123.28 C249.95 129.56 250.05 135.85 250.15 142.13 C255.1 142.13 260.05 142.13 265.15 142.13 C265.12 139.47 265.12 139.47 265.09 136.76 C265.02 131.38 265.02 131.38 266.15 129.13 C274.73 129.13 283.31 129.13 292.15 129.13 C293.47 131.77 294.79 134.41 296.15 137.13 C298.16 139.4 298.16 139.4 300.46 141.01 C301.54 141.84 301.54 141.84 302.64 142.69 C310.49 147.21 320.84 147.53 329.57 145.6 C333.06 144.24 335.47 142.49 337.15 139.13 C337.81 136.68 337.81 136.68 337.15 134.13 C332.38 127.46 324.33 126.42 316.67 125.14 C314.77 124.85 312.86 124.55 310.96 124.26 C294.56 121.52 275.75 117.02 265.19 102.86 C260.98 95.86 259.14 87.52 260.66 79.42 C261.37 76.93 262.19 74.54 263.15 72.13 C263.56 71.08 263.97 70.03 264.4 68.95 C271 58.34 281.62 53.57 293.33 50.58 C306.41 48.52 322.1 49.11 334.15 55.13 C334.15 54.14 334.15 53.15 334.15 52.13 C353.36 51.18 372.46 51.1 391.68 51.47 C394.53 51.52 397.37 51.57 400.21 51.61 C403.62 51.66 407.03 51.72 410.44 51.78 C411.7 51.8 412.97 51.82 414.27 51.84 C415.43 51.87 416.58 51.89 417.77 51.91 C419.3 51.94 419.3 51.94 420.86 51.97 C423.15 52.13 423.15 52.13 424.15 53.13 C424.24 55.06 424.25 56.99 424.25 58.92 C424.24 60.09 424.24 61.26 424.24 62.46 C424.23 63.7 424.22 64.93 424.21 66.2 C424.21 67.43 424.2 68.67 424.2 69.94 C424.18 73 424.17 76.07 424.15 79.13 C419.2 79.63 419.2 79.63 414.15 80.13 C415.39 86.29 417.03 91.89 419.4 97.7 C420.02 99.26 420.65 100.83 421.27 102.4 C421.59 103.18 421.9 103.97 422.22 104.78 C423.12 107.07 423.99 109.37 424.84 111.68 C425.1 112.4 425.36 113.12 425.64 113.86 C426.13 115.21 426.62 116.56 427.11 117.92 C428.46 121.6 430.09 124.8 432.15 128.13 C433.62 124.53 435.1 120.92 436.57 117.31 C437.31 115.5 438.06 113.69 438.8 111.87 C445.41 96.31 445.41 96.31 450.15 80.13 C449.44 80.07 448.73 80.01 448 79.95 C447.08 79.87 446.16 79.78 445.21 79.7 C443.84 79.57 443.84 79.57 442.43 79.45 C440.15 79.13 440.15 79.13 439.15 78.13 C439.05 76.38 439.02 74.62 439.02 72.86 C439.01 71.79 439.01 70.72 439.01 69.61 C439.02 68.48 439.02 67.36 439.02 66.2 C439.02 65.07 439.02 63.95 439.01 62.79 C439.01 61.18 439.01 61.18 439.02 59.54 C439.02 58.56 439.02 57.57 439.02 56.55 C439.15 54.13 439.15 54.13 440.15 52.13 C447.82 52.11 455.5 52.09 463.17 52.08 C466.74 52.08 470.3 52.07 473.86 52.06 C477.96 52.05 482.05 52.04 486.14 52.04 C488.07 52.03 488.07 52.03 490.04 52.02 C491.81 52.02 491.81 52.02 493.62 52.02 C495.19 52.02 495.19 52.02 496.79 52.01 C499.15 52.13 499.15 52.13 500.15 53.13 C500.24 55.06 500.25 56.99 500.25 58.92 C500.24 60.09 500.24 61.26 500.24 62.46 C500.23 63.7 500.22 64.93 500.21 66.2 C500.21 67.43 500.2 68.67 500.2 69.94 C500.18 73 500.17 76.07 500.15 79.13 C499.1 79.17 498.05 79.21 496.97 79.25 C495.59 79.31 494.21 79.38 492.84 79.45 C492.15 79.47 491.45 79.49 490.74 79.51 C486.86 79.65 486.86 79.65 483.53 81.42 C482.02 83.29 481.27 84.88 480.45 87.14 C480.15 87.95 479.86 88.76 479.55 89.59 C479.23 90.47 478.92 91.35 478.59 92.26 C478.09 93.64 478.09 93.64 477.57 95.05 C476.46 98.08 475.37 101.1 474.27 104.13 C473.5 106.24 472.73 108.35 471.96 110.45 C470.41 114.7 468.86 118.94 467.32 123.19 C464.42 131.14 461.48 139.08 458.52 147.01 C458.01 148.39 457.49 149.78 456.98 151.16 C452.72 162.62 448.44 174.06 444.15 185.51 C443.83 186.35 443.52 187.2 443.19 188.06 C441.18 193.42 439.17 198.78 437.15 204.13 C436.89 204.81 436.64 205.49 436.38 206.18 C435.68 208.03 434.98 209.88 434.27 211.74 C433.69 213.28 433.69 213.28 433.09 214.85 C432.15 217.13 432.15 217.13 431.15 218.13 C428.41 218.29 425.7 218.39 422.96 218.45 C422.14 218.47 421.32 218.49 420.47 218.51 C417.84 218.58 415.21 218.64 412.59 218.7 C410.81 218.74 409.03 218.78 407.25 218.83 C402.88 218.93 398.52 219.04 394.15 219.13 C394.29 222.95 394.43 226.76 394.59 230.57 C394.62 231.66 394.66 232.75 394.7 233.87 C394.75 234.9 394.79 235.94 394.83 237 C394.87 237.96 394.9 238.92 394.94 239.91 C394.91 242.11 394.91 242.11 396.15 243.13 C397.77 243.26 399.4 243.31 401.03 243.34 C402.08 243.36 403.12 243.38 404.19 243.4 C405.32 243.42 406.45 243.43 407.62 243.45 C409.35 243.48 409.35 243.48 411.11 243.51 C414.81 243.58 418.51 243.64 422.21 243.7 C424.71 243.74 427.21 243.78 429.71 243.83 C435.86 243.93 442 244.04 448.15 244.13 C450.15 250.88 450.15 250.88 450.15 253.13 C450.67 252.75 451.19 252.36 451.73 251.96 C463.68 243.51 475.75 241.31 490.15 242.13 C498.66 243.64 505.19 247.3 510.69 254 C515.78 261.45 518.23 269.15 518.34 278.1 C518.36 279.87 518.36 279.87 518.39 281.67 C518.41 283.56 518.41 283.56 518.43 285.49 C518.46 287.48 518.49 289.46 518.51 291.45 C518.57 295.64 518.62 299.82 518.67 304.01 C518.72 307.46 518.76 310.92 518.81 314.38 C518.85 316.97 518.88 319.56 518.91 322.15 C518.93 323.9 518.93 323.9 518.96 325.68 C518.97 326.71 518.98 327.75 519 328.81 C518.89 331.09 518.89 331.09 520.15 332.13 C522.48 332.17 524.81 332.18 527.15 332.13 C526.92 331.18 526.92 331.18 526.69 330.21 C520.95 305.89 520.29 285.5 533.4 263.38 C540.96 252.08 551.97 245.27 565.15 242.13 C579.11 240.88 590.86 243.08 602.32 251.55 C604.15 253.13 604.15 253.13 605.15 255.13 C605.21 254.51 605.27 253.88 605.33 253.24 C605.42 252.42 605.5 251.6 605.59 250.76 C605.67 249.95 605.75 249.13 605.83 248.3 C606.15 246.13 606.15 246.13 607.15 244.13 C613.68 244.11 620.21 244.09 626.75 244.08 C628.97 244.07 631.19 244.07 633.42 244.06 C636.61 244.05 639.8 244.04 642.99 244.04 C644.49 244.03 644.49 244.03 646.02 244.02 C646.94 244.02 647.86 244.02 648.81 244.02 C649.63 244.02 650.44 244.02 651.28 244.01 C653.15 244.13 653.15 244.13 654.15 245.13 C654.24 247.06 654.25 248.99 654.25 250.92 C654.24 252.09 654.24 253.26 654.24 254.46 C654.23 255.7 654.22 256.93 654.21 258.2 C654.21 259.43 654.2 260.67 654.2 261.94 C654.18 265 654.17 268.07 654.15 271.13 C651.18 271.46 648.21 271.79 645.15 272.13 C645.26 279.81 645.37 287.48 645.49 295.16 C645.54 298.72 645.6 302.29 645.65 305.85 C645.7 309.94 645.77 314.04 645.83 318.13 C645.85 319.42 645.86 320.7 645.88 322.02 C645.9 323.21 645.92 324.39 645.94 325.6 C645.96 326.65 645.97 327.7 645.99 328.77 C645.88 331.09 645.88 331.09 647.15 332.13 C649.17 332.21 651.19 332.22 653.21 332.2 C654.87 332.18 654.87 332.18 656.56 332.17 C657.41 332.16 658.27 332.15 659.15 332.13 C659.17 317.81 659.19 303.48 659.2 289.16 C659.2 282.51 659.21 275.86 659.22 269.21 C659.23 262.79 659.24 256.38 659.24 249.97 C659.24 247.52 659.25 245.06 659.25 242.61 C659.26 239.19 659.26 235.77 659.26 232.34 C659.27 231.32 659.27 230.29 659.27 229.24 C659.27 228.31 659.27 227.39 659.27 226.43 C659.27 225.62 659.27 224.81 659.27 223.97 C659.35 222.12 659.35 222.12 658.15 221.13 C655.56 221.02 652.99 220.98 650.4 220.98 C649.16 220.97 649.16 220.97 647.91 220.96 C645.13 220.95 642.36 220.94 639.58 220.93 C637.6 220.92 635.62 220.91 633.64 220.9 C628.25 220.87 622.85 220.85 617.46 220.83 C611.83 220.81 606.2 220.78 600.57 220.75 C589.9 220.7 579.22 220.66 568.55 220.62 C556.41 220.57 544.26 220.51 532.12 220.46 C507.13 220.34 482.14 220.24 457.15 220.13 C455.95 216.54 456.72 215.46 458.26 212.16 C459.2 210.01 459.93 207.86 460.65 205.63 C464.02 195.26 464.02 195.26 466.15 193.13 C469.12 193.04 472.07 193 475.04 193.01 C476.45 193.01 476.45 193.01 477.9 193.01 C481.09 193.01 484.28 193.01 487.47 193.02 C489.74 193.02 492.02 193.02 494.29 193.02 C500.49 193.02 506.69 193.03 512.89 193.03 C519.37 193.04 525.84 193.04 532.31 193.04 C543.18 193.04 554.05 193.05 564.92 193.06 C576.11 193.07 587.31 193.07 598.51 193.08 C599.54 193.08 599.54 193.08 600.6 193.08 C604.06 193.08 607.52 193.08 610.98 193.08 C639.7 193.09 668.43 193.11 697.15 193.13 C698.45 195.73 698.28 197.62 698.3 200.53 C698.31 201.68 698.32 202.82 698.32 204 C698.33 205.27 698.33 206.53 698.34 207.83 C698.35 209.17 698.35 210.51 698.36 211.84 C698.38 214.73 698.4 217.62 698.41 220.5 C698.43 225.06 698.46 229.62 698.48 234.18 C698.55 244.67 698.61 255.17 698.66 265.67 C698.71 275.29 698.76 284.91 698.83 294.53 C698.85 299.07 698.88 303.6 698.9 308.14 C698.91 310.96 698.93 313.77 698.95 316.59 C698.96 318.52 698.96 320.46 698.97 322.4 C698.98 323.54 698.99 324.69 699 325.86 C699 326.86 699.01 327.86 699.01 328.89 C698.9 331.1 698.9 331.1 700.15 332.13 C701.71 332.22 703.28 332.24 704.84 332.23 C706.26 332.23 706.26 332.23 707.7 332.22 C709.19 332.21 709.19 332.21 710.71 332.2 C711.71 332.19 712.7 332.19 713.73 332.18 C716.2 332.17 718.68 332.15 721.15 332.13 C721.17 324.46 721.19 316.78 721.2 309.11 C721.2 305.54 721.21 301.98 721.22 298.42 C721.24 294.32 721.24 290.23 721.25 286.14 C721.25 284.85 721.26 283.57 721.26 282.24 C721.26 281.06 721.26 279.88 721.26 278.66 C721.26 277.09 721.26 277.09 721.27 275.49 C721.41 273.18 721.41 273.18 720.15 272.13 C717.82 271.92 715.48 271.77 713.15 271.63 C706.26 271.24 706.26 271.24 705.15 270.13 C705.06 268.21 705.04 266.28 705.05 264.35 C705.05 263.18 705.06 262.01 705.06 260.8 C705.07 259.57 705.08 258.34 705.09 257.07 C705.09 255.84 705.09 254.6 705.1 253.33 C705.11 250.26 705.13 247.2 705.15 244.13 C712.82 244.11 720.49 244.09 728.16 244.08 C730.78 244.07 733.39 244.07 736 244.06 C739.75 244.05 743.49 244.04 747.24 244.04 C748.41 244.03 749.59 244.03 750.8 244.02 C751.88 244.02 752.96 244.02 754.08 244.02 C755.03 244.02 755.99 244.02 756.98 244.01 C759.15 244.13 759.15 244.13 760.15 245.13 C760.27 247.81 760.32 250.45 760.34 253.13 C760.35 253.96 760.35 254.8 760.36 255.66 C760.38 257.49 760.4 259.31 760.41 261.14 C760.43 264.02 760.46 266.9 760.48 269.78 C760.55 276.94 760.61 284.1 760.67 291.26 C760.72 297.3 760.78 303.35 760.84 309.39 C760.87 312.24 760.89 315.09 760.91 317.93 C760.92 319.67 760.94 321.41 760.96 323.14 C760.96 323.94 760.97 324.74 760.97 325.56 C760.68 329.15 760.68 329.15 762.15 332.13 C764.5 332.37 766.85 332.55 769.21 332.7 C771.15 332.82 771.15 332.82 773.12 332.95 C774.12 333.01 775.12 333.07 776.15 333.13 C776.14 332.36 776.12 331.59 776.11 330.8 C776.1 329.79 776.09 328.79 776.09 327.76 C776.07 326.76 776.06 325.76 776.05 324.74 C776.15 322.13 776.15 322.13 777.15 320.13 C785.73 320.13 794.31 320.13 803.15 320.13 C804.47 322.77 805.79 325.41 807.15 328.13 C813.44 334.92 820.12 337.09 829.09 337.45 C835.27 337.3 840.69 335.94 845.71 332.26 C847.29 330.21 847.29 330.21 847.71 327.7 C846.89 323.97 845.05 322.52 842.15 320.13 C837.76 317.95 833.31 317.47 828.52 316.82 C813.36 314.56 799.21 311.49 786.15 303.13 C785.35 302.63 784.54 302.12 783.72 301.6 C776.43 296.59 773.69 290.28 771.63 281.89 C770.14 273.35 773.12 265.62 777.15 258.13 C784.42 248.2 796.39 244.03 808.15 242.13 C820.11 240.84 833.07 242.34 844.15 247.13 C844.15 246.14 844.15 245.15 844.15 244.13 C848.46 244.1 852.77 244.09 857.09 244.07 C858.32 244.06 859.55 244.05 860.82 244.05 C861.99 244.04 863.16 244.04 864.36 244.04 C865.45 244.03 866.53 244.03 867.65 244.02 C870.15 244.13 870.15 244.13 871.15 245.13 C871.25 247.57 871.29 249.98 871.28 252.41 C871.28 253.14 871.28 253.87 871.28 254.62 C871.28 256.17 871.28 257.71 871.28 259.25 C871.27 261.62 871.28 263.99 871.28 266.36 C871.28 267.86 871.28 269.36 871.28 270.85 C871.28 271.57 871.28 272.28 871.29 273.01 C871.26 278.02 871.26 278.02 870.15 279.13 C866.24 279.44 862.32 279.41 858.4 279.45 C857.3 279.48 856.2 279.5 855.07 279.53 C846.93 279.6 846.93 279.6 843.01 277.28 C841.66 275.72 840.36 274.13 839.09 272.51 C836.18 268.95 834.14 268.27 829.57 267.65 C828.2 267.55 826.83 267.46 825.46 267.38 C824.75 267.34 824.03 267.3 823.3 267.26 C817.87 267.03 813.31 267.24 808.15 269.13 C805.54 271.45 805.54 271.45 804.15 274.13 C804.15 274.79 804.15 275.45 804.15 276.13 C809.32 280.57 814.95 281.46 821.52 282.7 C822.59 282.91 823.66 283.12 824.76 283.34 C829.46 284.27 834.17 285.15 838.89 285.94 C846.98 287.31 853.89 289.27 861.15 293.13 C861.8 293.43 862.46 293.72 863.13 294.03 C870.23 297.46 874.57 304.11 877.52 311.2 C879.89 318.3 879.96 325.71 880.15 333.13 C880.81 333.13 881.47 333.13 882.15 333.13 C882.04 318.68 881.93 304.22 881.81 289.77 C881.75 283.06 881.7 276.34 881.65 269.63 C881.6 263.16 881.55 256.69 881.49 250.22 C881.47 247.75 881.46 245.27 881.44 242.8 C881.41 239.34 881.38 235.89 881.35 232.44 C881.35 231.4 881.34 230.37 881.34 229.3 C881.33 228.37 881.32 227.43 881.31 226.47 C881.3 225.65 881.29 224.83 881.29 223.99 C881.35 222.12 881.35 222.12 880.15 221.13 C877.44 221.01 874.76 220.95 872.05 220.93 C871.2 220.92 870.35 220.91 869.48 220.9 C866.66 220.87 863.84 220.84 861.02 220.82 C859.07 220.8 857.12 220.78 855.17 220.75 C850.03 220.7 844.89 220.65 839.75 220.6 C834.51 220.55 829.27 220.5 824.02 220.44 C813.73 220.33 803.44 220.23 793.15 220.13 C792.82 219.47 792.49 218.81 792.15 218.13 C793.21 215.72 793.21 215.72 794.86 212.72 C795.44 211.65 796.03 210.58 796.63 209.48 C797.57 207.79 797.57 207.79 798.52 206.07 C799.14 204.94 799.76 203.82 800.39 202.66 C804.97 194.31 804.97 194.31 806.15 193.13 C807.63 193.04 809.11 193.01 810.59 193.01 C811.55 193 812.51 193 813.5 193 C814.56 193 815.62 193 816.71 193 C817.82 193 818.93 193 820.08 193 C823.77 192.99 827.46 193 831.15 193 C833.7 193 836.25 193 838.8 193 C844.16 193 849.52 193 854.87 193 C861.08 193.01 867.28 193.01 873.48 193 C879.43 193 885.39 193 891.34 193 C893.88 193 896.42 193 898.96 193 C902.5 192.99 906.04 193 909.59 193 C910.65 193 911.71 193 912.8 193 C913.76 193 914.72 193 915.71 193.01 C916.54 193.01 917.38 193.01 918.25 193.01 C920.15 193.13 920.15 193.13 921.15 194.13 C921.27 195.94 921.33 197.76 921.35 199.57 C921.37 200.73 921.39 201.89 921.41 203.09 C921.43 204.35 921.45 205.62 921.46 206.92 C921.49 208.2 921.51 209.49 921.53 210.82 C921.58 214.24 921.63 217.66 921.68 221.09 C921.73 224.58 921.79 228.07 921.84 231.57 C921.95 238.42 922.05 245.28 922.15 252.13 C922.76 251.72 923.38 251.3 924.01 250.87 C924.81 250.33 925.62 249.78 926.45 249.22 C927.65 248.41 927.65 248.41 928.88 247.59 C931.46 245.93 933.99 244.8 936.9 243.82 C938.22 243.36 938.22 243.36 939.57 242.9 C951.38 239.4 963.89 240.37 974.96 245.82 C982.15 251.04 987.96 260.14 989.7 268.9 C990.14 272.11 990.31 275.18 990.35 278.41 C990.37 279.64 990.39 280.86 990.41 282.11 C990.43 283.42 990.45 284.72 990.46 286.06 C990.48 287.42 990.51 288.78 990.53 290.14 C990.58 293.7 990.63 297.26 990.68 300.82 C990.73 304.46 990.79 308.1 990.84 311.74 C990.95 318.87 991.05 326 991.15 333.13 C992.22 333.12 993.29 333.11 994.39 333.1 C995.79 333.09 997.19 333.08 998.59 333.07 C999.29 333.06 1000 333.05 1000.73 333.05 C1002.53 333.04 1004.34 333.08 1006.15 333.13 C1007.15 334.13 1007.15 334.13 1007.26 336.73 C1007.26 337.85 1007.25 338.98 1007.25 340.14 C1007.24 341.35 1007.24 342.57 1007.24 343.82 C1007.23 345.1 1007.22 346.38 1007.21 347.7 C1007.21 348.98 1007.2 350.26 1007.2 351.58 C1007.18 354.77 1007.17 357.95 1007.15 361.13 C999.48 361.16 991.8 361.18 984.13 361.19 C981.52 361.19 978.91 361.2 976.29 361.21 C972.55 361.22 968.8 361.23 965.06 361.23 C963.88 361.24 962.71 361.24 961.49 361.25 C960.41 361.25 959.33 361.25 958.22 361.25 C957.26 361.25 956.3 361.25 955.32 361.25 C953.15 361.13 953.15 361.13 952.15 360.13 C952.03 358.16 951.98 356.18 951.96 354.2 C951.94 352.93 951.93 351.65 951.91 350.34 C951.9 349.66 951.89 348.97 951.89 348.26 C951.87 346.11 951.84 343.95 951.81 341.8 C951.75 337.2 951.7 332.61 951.65 328.01 C951.59 322.73 951.53 317.44 951.46 312.16 C951.43 310.06 951.41 307.97 951.39 305.87 C951.34 301.96 951.25 298.05 951.15 294.13 C951.13 293.45 951.12 292.77 951.1 292.07 C951.05 290.03 950.97 287.99 950.88 285.95 C950.84 284.76 950.79 283.57 950.75 282.35 C950.04 278.54 948.9 276.83 946.15 274.13 C939.68 272.35 934.26 273.48 928.15 276.13 C927.12 276.57 926.09 277 925.03 277.45 C921.71 280.54 921.7 281.13 921.47 285.45 C921.47 287.67 921.5 289.9 921.56 292.12 C921.57 293.29 921.58 294.46 921.59 295.67 C921.62 299.41 921.7 303.14 921.77 306.88 C921.8 309.42 921.83 311.95 921.85 314.49 C921.92 320.7 922.02 326.92 922.15 333.13 C927.1 333.13 932.05 333.13 937.15 333.13 C938.47 335.78 938.28 337.8 938.28 340.76 C938.28 341.88 938.28 343 938.28 344.15 C938.28 345.32 938.28 346.49 938.27 347.7 C938.28 348.87 938.28 350.05 938.28 351.26 C938.28 352.37 938.28 353.49 938.28 354.64 C938.28 356.18 938.28 356.18 938.28 357.76 C938.15 360.13 938.15 360.13 937.15 361.13 C934.96 361.25 932.76 361.29 930.56 361.31 C929.88 361.32 929.19 361.32 928.48 361.33 C926.19 361.35 923.91 361.36 921.62 361.37 C920.85 361.38 920.07 361.38 919.26 361.38 C915.14 361.41 911.02 361.42 906.9 361.43 C902.64 361.44 898.38 361.47 894.11 361.51 C890.84 361.54 887.57 361.55 884.3 361.55 C882.73 361.56 881.16 361.57 879.58 361.59 C877.39 361.61 875.19 361.61 872.99 361.6 C871.11 361.61 871.11 361.61 869.2 361.62 C866.15 361.13 866.15 361.13 864.22 359.1 C863.87 358.45 863.51 357.8 863.15 357.13 C862.34 357.4 861.54 357.67 860.71 357.95 C859.53 358.34 858.36 358.73 857.15 359.13 C856.42 359.39 855.7 359.64 854.96 359.9 C854.19 360.16 853.43 360.43 852.65 360.7 C851.94 360.95 851.22 361.19 850.49 361.45 C837.8 365.15 819.59 364.92 807.9 358.51 C806.64 357.74 805.38 356.95 804.15 356.13 C803.82 357.78 803.49 359.43 803.15 361.13 C751.34 361.13 699.53 361.13 646.15 361.13 C644.83 367.4 643.51 373.67 642.15 380.13 C640.24 384.66 638.45 388.86 636.15 393.13 C635.49 393.13 634.83 393.13 634.15 393.13 C633.9 393.71 633.65 394.29 633.39 394.89 C628.44 403.83 617.46 409.31 608.01 412.04 C599.18 414.02 590.8 414.61 581.77 414.51 C580.76 414.5 580.76 414.5 579.72 414.5 C562.77 414.37 546.17 412.65 532.15 402.13 C532.77 398.92 533.86 396.81 535.77 394.16 C536.29 393.43 536.81 392.69 537.35 391.93 C537.91 391.18 538.46 390.42 539.02 389.63 C539.84 388.49 539.84 388.49 540.67 387.33 C543.12 383.9 545.61 380.5 548.15 377.13 C552.37 377.84 556.2 379.16 560.21 380.63 C571.41 384.75 582.43 386.23 593.8 381.46 C599.2 378.41 602.7 373.6 604.69 367.73 C605.77 361.62 605.35 355.31 605.15 349.13 C604.49 349.58 603.84 350.03 603.16 350.49 C590.55 358.85 578.06 364.26 562.77 361.51 C552.87 359.01 543.36 353.35 536.15 346.13 C536.17 347.52 536.17 347.52 536.18 348.94 C536.2 350.74 536.2 350.74 536.21 352.57 C536.22 353.77 536.23 354.96 536.25 356.19 C536.15 359.13 536.15 359.13 535.15 360.13 C533.47 360.23 531.78 360.26 530.09 360.26 C528.48 360.27 528.48 360.27 526.83 360.27 C525.65 360.27 524.48 360.27 523.27 360.27 C522.08 360.27 520.88 360.27 519.65 360.27 C517.12 360.27 514.59 360.27 512.06 360.26 C508.16 360.26 504.27 360.26 500.38 360.27 C497.93 360.27 495.48 360.27 493.02 360.27 C491.85 360.27 490.68 360.27 489.47 360.27 C488.39 360.27 487.31 360.27 486.2 360.26 C485.25 360.26 484.29 360.26 483.31 360.26 C481.15 360.13 481.15 360.13 480.15 359.13 C480.04 356.79 479.99 354.48 479.99 352.14 C479.99 351.41 479.98 350.68 479.97 349.92 C479.96 348.33 479.96 346.73 479.95 345.14 C479.94 342.61 479.92 340.08 479.9 337.56 C479.83 330.37 479.78 323.19 479.75 316 C479.73 311.61 479.69 307.22 479.65 302.83 C479.63 301.16 479.62 299.48 479.62 297.81 C479.61 295.47 479.59 293.12 479.56 290.78 C479.57 290.09 479.57 289.4 479.57 288.69 C479.5 284.14 478.57 280.99 476.15 277.13 C472.33 274.59 469.56 274.45 465.15 275.13 C456.5 277.46 456.5 277.46 450.15 283.13 C449.85 285.37 449.85 285.37 449.91 287.86 C449.9 288.82 449.9 289.78 449.9 290.77 C449.9 291.8 449.91 292.83 449.92 293.89 C449.92 294.95 449.92 296.01 449.92 297.1 C449.92 299.34 449.93 301.58 449.94 303.81 C449.96 307.25 449.96 310.69 449.96 314.13 C449.97 316.3 449.97 318.47 449.98 320.64 C449.98 322.19 449.98 322.19 449.98 323.78 C449.99 325.21 449.99 325.21 450 326.66 C450.01 327.5 450.01 328.34 450.01 329.21 C449.94 331.14 449.94 331.14 451.15 332.13 C453.31 332.34 455.48 332.5 457.65 332.63 C464.04 333.02 464.04 333.02 465.15 334.13 C465.24 336.06 465.25 337.99 465.25 339.92 C465.24 341.09 465.24 342.26 465.24 343.46 C465.23 344.7 465.22 345.93 465.21 347.2 C465.21 348.43 465.2 349.67 465.2 350.94 C465.18 354 465.17 357.07 465.15 360.13 C418.05 360.95 370.96 361.32 323.86 361.32 C317.08 361.32 310.31 361.33 303.54 361.34 C296.88 361.36 290.23 361.36 283.58 361.36 C279.65 361.36 275.73 361.37 271.81 361.38 C268.19 361.39 264.57 361.39 260.95 361.38 C258.99 361.38 257.03 361.39 255.07 361.39 C253.92 361.39 252.76 361.39 251.57 361.38 C250.06 361.38 250.06 361.38 248.53 361.38 C246.15 361.13 246.15 361.13 244.15 359.13 C243.91 356.55 243.91 356.55 243.92 353.32 C243.92 352.16 243.92 351.01 243.92 349.81 C243.94 348.6 243.95 347.38 243.96 346.13 C243.96 344.31 243.96 344.31 243.96 342.45 C244.01 333.41 244.01 333.41 245.15 331.13 C251.42 331.13 257.69 331.13 264.15 331.13 C264.04 316.94 263.93 302.74 263.81 288.55 C263.75 281.96 263.7 275.37 263.65 268.78 C263.6 262.42 263.55 256.07 263.49 249.72 C263.47 247.29 263.46 244.86 263.44 242.43 C263.41 239.03 263.38 235.64 263.35 232.25 C263.35 231.24 263.34 230.22 263.34 229.18 C263.32 227.8 263.32 227.8 263.31 226.39 C263.3 225.59 263.29 224.79 263.29 223.96 C263.35 222.11 263.35 222.11 262.15 221.13 C260.61 221 259.07 220.93 257.53 220.89 C256.12 220.84 256.12 220.84 254.69 220.79 C252.71 220.73 250.72 220.67 248.74 220.62 C247.8 220.58 246.87 220.55 245.9 220.51 C245.04 220.49 244.18 220.46 243.29 220.44 C241.15 220.13 241.15 220.13 239.15 218.13 C238.92 215.43 238.92 215.43 238.95 212.03 C238.96 210.21 238.96 210.21 238.97 208.36 C239 206.45 239 206.45 239.02 204.51 C239.03 203.23 239.04 201.95 239.05 200.63 C239.07 197.47 239.11 194.3 239.15 191.13 C242.07 189.67 244.62 190.01 247.88 190.01 C248.58 190.01 249.28 190.01 250 190.01 C252.36 190.01 254.72 190.01 257.07 190.02 C258.76 190.02 260.44 190.02 262.13 190.02 C266.71 190.02 271.3 190.03 275.88 190.03 C280.67 190.04 285.46 190.04 290.24 190.04 C299.31 190.04 308.38 190.05 317.45 190.06 C327.78 190.07 338.1 190.08 348.42 190.08 C369.67 190.09 390.91 190.11 412.15 190.13 C412.35 187.56 412.54 184.98 412.72 182.41 C412.78 181.68 412.84 180.95 412.9 180.2 C413.29 174.55 412.84 171.4 410.09 166.51 C409.43 165.27 408.77 164.04 408.12 162.8 C407.79 162.19 407.46 161.59 407.11 160.96 C405.56 158.01 404.31 154.96 403.02 151.88 C400.95 147.01 398.82 142.17 396.62 137.35 C394.67 133.1 392.75 128.83 390.84 124.57 C390.45 123.71 390.06 122.85 389.66 121.96 C387.43 117.01 385.22 112.04 383.02 107.07 C380.13 100.55 377.21 94.04 374.21 87.57 C373.92 86.93 373.62 86.3 373.32 85.64 C372.05 82.68 372.05 82.68 370.15 80.13 C367.48 79.99 364.82 80.09 362.15 80.13 C362.18 81.59 362.18 81.59 362.21 83.07 C362.15 86.13 362.15 86.13 361.15 87.13 C357.07 87.44 352.98 87.41 348.9 87.45 C347.18 87.49 347.18 87.49 345.43 87.53 C336.94 87.6 336.94 87.6 332.97 85.28 C331.66 83.74 330.41 82.14 329.21 80.51 C326.28 77.14 323.31 76.33 318.88 75.93 C316.3 75.83 313.73 75.81 311.15 75.82 C310.27 75.81 309.39 75.79 308.49 75.77 C303.34 75.77 299.53 76.11 295.15 79.13 C294.17 82.22 294.17 82.22 294.15 85.13 C299.72 88.76 304.63 90.12 311.15 91.2 C313.02 91.53 314.9 91.87 316.78 92.2 C318.57 92.51 320.36 92.82 322.15 93.13 C353 98.52 353 98.52 361.92 109.27 C368.65 118.94 371.14 128.37 370.15 140.13 C367.88 151.09 362.23 159.65 353.15 166.13 C345.55 170.67 337.71 172.39 328.96 172.82 C327.86 172.88 327.86 172.88 326.73 172.94 C314.89 173.44 304.26 172.88 294.15 166.13 C293.82 167.45 293.49 168.77 293.15 170.13 C266.09 170.13 239.03 170.13 211.15 170.13 C210.49 168.15 209.83 166.17 209.15 164.13 C204.39 166.02 199.69 168.01 194.99 170.01 C184.32 174.23 169.68 173.5 159.15 169.13 C152.85 166.18 147.27 162.84 142.15 158.13 C141.82 162.09 141.49 166.05 141.15 170.13 C121.74 170.16 102.33 170.17 82.92 170.19 C73.91 170.19 64.89 170.2 55.88 170.21 C48.03 170.22 40.18 170.23 32.33 170.23 C28.17 170.23 24.01 170.23 19.85 170.24 C15.94 170.25 12.03 170.25 8.11 170.25 C6.68 170.25 5.24 170.25 3.8 170.25 C1.84 170.26 -0.12 170.26 -2.08 170.25 C-3.17 170.25 -4.27 170.26 -5.4 170.26 C-7.85 170.13 -7.85 170.13 -8.85 169.13 C-8.94 167.06 -8.96 164.99 -8.95 162.91 C-8.94 161.02 -8.94 161.02 -8.94 159.09 C-8.93 157.75 -8.92 156.41 -8.91 155.07 C-8.91 153.73 -8.9 152.38 -8.9 151.04 C-8.89 147.74 -8.87 144.44 -8.85 141.13 C-2.25 141.13 4.35 141.13 11.15 141.13 C11.15 104.83 11.15 68.53 11.15 31.13 C4.88 30.8 -1.39 30.47 -7.85 30.13 C-8.85 29.13 -8.85 29.13 -8.97 26.45 C-8.96 25.28 -8.96 24.11 -8.95 22.91 C-8.95 21.65 -8.94 20.39 -8.94 19.09 C-8.93 17.75 -8.92 16.41 -8.91 15.07 C-8.91 13.73 -8.9 12.38 -8.9 11.04 C-8.89 7.74 -8.87 4.44 -8.85 1.13 C-5.65 0.07 -3.36 0.01 0 0 Z " fill="#020409" transform="translate(85.85206604003906,410.8662872314453)"/>
<path d="M0 0 C19.77 -0.05 39.53 -0.08 59.3 -0.1 C68.48 -0.11 77.65 -0.13 86.83 -0.15 C94.83 -0.17 102.83 -0.18 110.82 -0.19 C115.06 -0.19 119.3 -0.2 123.53 -0.21 C127.52 -0.23 131.5 -0.23 135.49 -0.23 C136.95 -0.23 138.42 -0.23 139.88 -0.24 C141.88 -0.25 143.87 -0.24 145.87 -0.24 C147.55 -0.24 147.55 -0.24 149.26 -0.25 C152 0 152 0 155 2 C154.47 2.81 153.93 3.63 153.38 4.46 C148.5 11.96 143.83 19.56 139.36 27.31 C138.97 28 138.57 28.68 138.16 29.38 C137.65 30.29 137.65 30.29 137.12 31.21 C136.75 31.8 136.38 32.39 136 33 C135.61 33.69 135.22 34.38 134.81 35.08 C133 37 133 37 130.25 37.48 C129.13 37.47 128.02 37.46 126.88 37.45 C125.62 37.45 124.35 37.45 123.05 37.45 C121.68 37.43 120.3 37.41 118.93 37.39 C117.52 37.38 116.11 37.38 114.7 37.37 C111 37.36 107.29 37.32 103.59 37.27 C99.81 37.23 96.03 37.22 92.25 37.2 C84.83 37.15 77.42 37.08 70 37 C70.33 46.9 70.66 56.8 71 67 C73.94 66.99 76.87 66.98 79.9 66.96 C82.73 66.96 85.57 66.95 88.41 66.95 C90.38 66.94 92.36 66.93 94.33 66.92 C97.17 66.91 100 66.91 102.84 66.9 C103.72 66.9 104.61 66.89 105.52 66.89 C111.77 66.89 111.77 66.89 114 68 C112.05 73.48 109.02 78.31 105.99 83.25 C103.85 86.76 101.86 90.15 100.34 93.97 C98.56 97.92 97.37 100.25 94 103 C87.47 104.64 80.68 104.36 74.01 104 C73.34 104 72.68 104 72 104 C69.96 106.04 70.86 110.29 70.86 113.09 C70.84 114.78 70.82 116.47 70.8 118.16 C70.77 120.82 70.75 123.48 70.75 126.14 C70.73 144.66 70.73 144.66 65 152 C64.49 152.88 63.97 153.77 63.45 154.68 C60.81 159.07 58.1 163.39 55.31 167.69 C52.74 171.69 50.68 175.55 49 180 C46.8 178.26 46.07 177.36 45.56 174.56 C46.13 171.26 47.49 170.12 50 168 C49.45 167.67 48.89 167.35 48.32 167.01 C47.6 166.57 46.87 166.14 46.12 165.69 C45.41 165.26 44.69 164.83 43.95 164.39 C42 163 42 163 40 160 C39.34 160 38.68 160 38 160 C37.61 160.78 37.22 161.57 36.81 162.38 C34.38 165.9 32.09 166.15 28 167 C28.35 167.52 28.7 168.04 29.06 168.57 C33.58 175.5 33.58 175.5 34 180 C34.99 179.34 35.98 178.68 37 178 C40.56 178.12 40.56 178.12 44 179 C45.37 180.73 45.37 180.73 46 183 C45.09 185.48 45.09 185.48 43.5 188.19 C42.93 189.16 42.37 190.13 41.78 191.14 C39.76 194.39 37.65 197.56 35.48 200.71 C33.93 203.11 32.59 205.54 31.25 208.06 C28.32 213.57 25.03 218.8 21.69 224.07 C18.63 228.92 15.81 233.86 13.16 238.96 C12 241 12 241 10 243 C7.38 243.25 7.38 243.25 3.99 243.24 C2.71 243.24 1.43 243.25 0.11 243.25 C-1.32 243.24 -2.75 243.23 -4.18 243.23 C-5.68 243.23 -7.18 243.23 -8.67 243.23 C-12.75 243.23 -16.82 243.22 -20.9 243.2 C-25.15 243.19 -29.41 243.19 -33.66 243.19 C-41.72 243.18 -49.78 243.16 -57.84 243.14 C-67.02 243.12 -76.19 243.11 -85.37 243.1 C-104.25 243.08 -123.12 243.04 -142 243 C-142.96 239.97 -143.13 239.29 -141.78 236.24 C-140.87 234.79 -140.87 234.79 -139.94 233.31 C-139.35 232.34 -138.76 231.37 -138.15 230.36 C-136 228 -136 228 -133 227.04 C-129.94 227 -128.53 227.35 -126 229 C-125.96 228.39 -125.93 227.77 -125.89 227.14 C-125.82 226.33 -125.76 225.52 -125.69 224.69 C-125.63 223.89 -125.57 223.09 -125.51 222.26 C-124.92 219.64 -124.04 218.69 -122 217 C-122.33 216.01 -122.66 215.02 -123 214 C-123.99 213.67 -124.98 213.34 -126 213 C-124.79 208.5 -122.99 205.4 -120.24 201.75 C-118.51 199.31 -117.25 196.7 -116 194 C-114.68 194.33 -113.36 194.66 -112 195 C-111.34 197.97 -110.68 200.94 -110 204 C-108.02 203.01 -108.02 203.01 -106 202 C-103.64 202.02 -103.64 202.02 -101.25 202.38 C-100.45 202.49 -99.65 202.6 -98.83 202.71 C-98.22 202.81 -97.62 202.9 -97 203 C-97.08 201.95 -97.16 200.9 -97.25 199.81 C-96.96 195.46 -95.98 194.07 -93 191 C-93.66 191 -94.32 191 -95 191 C-95 190.34 -95 189.68 -95 189 C-95.93 188.94 -96.86 188.88 -97.81 188.81 C-101 188 -101 188 -102.88 185.44 C-103.25 184.63 -103.62 183.83 -104 183 C-105.32 184.98 -106.64 186.96 -108 189 C-109.32 188.67 -110.64 188.34 -112 188 C-106.85 178.89 -101.56 169.87 -96.15 160.91 C-94.99 158.98 -93.83 157.04 -92.68 155.11 C-89.23 149.33 -85.77 143.59 -82.12 137.94 C-79.83 134.37 -77.77 130.85 -76 127 C-73.69 127.33 -71.38 127.66 -69 128 C-69.37 126.39 -69.37 126.39 -69.75 124.75 C-69.83 123.51 -69.91 122.28 -70 121 C-68 118.81 -68 118.81 -66 117 C-66.27 116.12 -66.27 116.12 -66.55 115.22 C-67.21 111.96 -65.91 110.44 -64.25 107.62 C-63.7 106.66 -63.14 105.7 -62.57 104.71 C-62.05 103.81 -61.53 102.92 -61 102 C-59.96 100.01 -58.98 98.01 -58 96 C-57.34 96 -56.68 96 -56 96 C-56 96.66 -56 97.32 -56 98 C-55.34 98 -54.68 98 -54 98 C-53.5 101.47 -53.5 101.47 -53 105 C-52.28 104.65 -51.56 104.3 -50.81 103.94 C-46.84 102.61 -44.42 103.35 -40.69 105.06 C-40.13 105.37 -39.57 105.68 -39 106 C-39.33 105.34 -39.66 104.68 -40 104 C-40.58 97.71 -40.58 97.71 -38 94.56 C-37.34 94.05 -36.68 93.53 -36 93 C-36.55 92.77 -37.11 92.54 -37.68 92.3 C-43.71 89.58 -43.71 89.58 -45.31 86.31 C-45.54 85.55 -45.77 84.79 -46 84 C-47.49 83.5 -47.49 83.5 -49 83 C-38.91 65.2 -28.6 47.51 -18 30 C-16.35 30.33 -14.7 30.66 -13 31 C-13 28.03 -13 25.06 -13 22 C-10.52 21.01 -10.52 21.01 -8 20 C-8.23 19.29 -8.47 18.58 -8.71 17.85 C-9.1 14 -7.86 12.57 -5.69 9.44 C-3.57 6.34 -1.63 3.37 0 0 Z " fill="#0A324D" transform="translate(1018,119)"/>
<path d="M0 0 C0.68 -0 1.36 -0 2.07 -0.01 C4.37 -0.01 6.68 -0.01 8.99 -0.01 C10.65 -0.01 12.31 -0.01 13.97 -0.02 C18.56 -0.03 23.14 -0.03 27.73 -0.03 C32.66 -0.03 37.6 -0.04 42.54 -0.04 C53.34 -0.06 64.15 -0.06 74.95 -0.07 C81.69 -0.07 88.43 -0.08 95.17 -0.08 C113.82 -0.09 132.46 -0.1 151.11 -0.11 C152.9 -0.11 152.9 -0.11 154.73 -0.11 C155.93 -0.11 157.12 -0.11 158.36 -0.11 C160.78 -0.11 163.21 -0.11 165.63 -0.11 C166.84 -0.11 168.04 -0.11 169.28 -0.11 C188.79 -0.11 208.3 -0.13 227.81 -0.15 C247.82 -0.18 267.84 -0.19 287.85 -0.19 C299.09 -0.19 310.33 -0.2 321.58 -0.22 C331.15 -0.23 340.72 -0.24 350.29 -0.23 C355.18 -0.22 360.07 -0.23 364.96 -0.24 C369.42 -0.25 373.89 -0.25 378.36 -0.24 C379.98 -0.24 381.61 -0.24 383.23 -0.25 C385.42 -0.26 387.62 -0.25 389.81 -0.24 C391.03 -0.24 392.26 -0.24 393.51 -0.24 C396.47 0.13 396.47 0.13 398.36 1.51 C399.98 3.88 399.88 5.31 399.47 8.13 C398.15 10.64 398.15 10.64 396.34 13.26 C393.94 16.86 391.69 20.44 389.66 24.26 C384.23 34.39 378.28 44.25 372.22 54.01 C369.31 58.69 366.64 63.45 364.03 68.31 C361.62 72.65 358.98 76.84 356.35 81.06 C354.33 84.35 352.46 87.7 350.61 91.1 C349.48 93.11 348.27 95.06 347.03 97.01 C344.48 101.02 342.25 105.17 340 109.35 C338.12 112.77 336.11 116.09 334.09 119.42 C332.23 122.53 330.44 125.67 328.66 128.82 C325.51 134.37 322.26 139.85 318.97 145.31 C316.08 150.1 313.23 154.93 310.41 159.76 C307.41 164.88 304.35 169.96 301.22 175.01 C298.38 179.59 295.75 184.23 293.2 188.97 C289.62 195.5 285.83 201.92 282.08 208.36 C280.35 211.34 278.62 214.32 276.89 217.31 C275.67 219.42 274.44 221.52 273.22 223.63 C272.65 224.61 272.09 225.59 271.5 226.6 C268.15 232.36 264.68 238.01 261.05 243.6 C258.88 247.06 256.99 250.65 255.07 254.25 C253.3 257.44 251.4 260.53 249.47 263.63 C247.01 267.58 244.66 271.53 242.47 275.63 C239.64 280.92 236.51 285.99 233.34 291.08 C231.81 293.57 230.36 296.07 228.97 298.63 C226.95 302.34 224.76 305.92 222.53 309.51 C219.57 314.28 216.81 319.11 214.16 324.06 C209.13 333.2 203.72 342.15 198.22 351.01 C195.31 355.69 192.63 360.46 190.03 365.32 C188.27 368.49 186.38 371.56 184.47 374.63 C181.44 379.5 178.59 384.43 175.89 389.5 C172.68 395.45 169.21 401.18 165.59 406.88 C162.22 412.23 159.04 417.62 156.06 423.21 C153.71 427.52 151.2 431.73 148.71 435.95 C144.3 443.4 139.95 450.88 135.6 458.36 C132.97 462.88 130.33 467.39 127.61 471.86 C127.19 472.55 126.77 473.24 126.34 473.95 C125.58 475.19 124.81 476.43 124.04 477.67 C122.32 480.48 121.18 482.92 120.47 486.13 C121.04 486.06 121.6 485.99 122.19 485.92 C129.38 485.11 136.51 484.95 143.74 484.93 C144.98 484.92 146.22 484.92 147.49 484.91 C150.1 484.9 152.7 484.9 155.3 484.89 C157.96 484.88 160.63 484.87 163.29 484.85 C167.15 484.82 171 484.81 174.86 484.8 C176.05 484.79 177.24 484.78 178.47 484.77 C179.58 484.77 180.69 484.77 181.83 484.77 C182.8 484.77 183.77 484.77 184.77 484.76 C189.55 485.41 192.96 488.4 196.66 491.32 C197.44 491.94 198.23 492.56 199.03 493.19 C199.84 493.83 200.64 494.47 201.47 495.13 C202.22 495.73 202.97 496.33 203.75 496.94 C207.45 499.9 211.15 502.87 214.84 505.85 C221.52 511.23 228.26 516.52 235.09 521.69 C240.9 526.1 246.55 530.64 252.08 535.39 C255.66 538.46 259.3 541.4 263.03 544.26 C270.67 550.12 278.22 556.09 285.72 562.13 C286.59 562.83 287.46 563.53 288.36 564.26 C290.71 566.35 292.33 568 292.73 571.21 C292.74 572.01 292.74 572.81 292.75 573.64 C292.76 575.02 292.76 575.02 292.78 576.44 C292.78 577.45 292.79 578.46 292.79 579.51 C292.8 580.58 292.81 581.65 292.82 582.75 C292.85 586.3 292.87 589.86 292.88 593.41 C292.9 595.9 292.92 598.39 292.94 600.87 C292.98 606.11 293.02 611.34 293.05 616.58 C293.09 624.51 293.15 632.45 293.21 640.38 C293.39 664.8 293.39 664.8 293.44 676.33 C293.45 681.13 293.5 685.94 293.55 690.74 C293.57 693.21 293.58 695.69 293.6 698.16 C293.63 699.9 293.63 699.9 293.65 701.67 C293.66 702.73 293.66 703.8 293.67 704.9 C293.68 705.84 293.69 706.78 293.7 707.75 C293.47 710.13 293.47 710.13 291.47 713.13 C288.81 713.51 288.81 713.51 285.34 713.51 C283.37 713.52 283.37 713.52 281.36 713.53 C279.88 713.52 278.41 713.51 276.94 713.51 C275.38 713.51 273.83 713.51 272.27 713.52 C267.98 713.53 263.7 713.52 259.41 713.51 C254.79 713.5 250.17 713.51 245.55 713.51 C236.5 713.52 227.44 713.52 218.39 713.51 C207.86 713.49 197.32 713.49 186.79 713.5 C167.99 713.5 149.2 713.49 130.41 713.47 C112.16 713.45 93.91 713.44 75.66 713.45 C55.8 713.45 35.95 713.45 16.09 713.44 C13.98 713.44 11.86 713.44 9.75 713.44 C8.71 713.44 7.67 713.44 6.59 713.44 C-0.76 713.43 -8.11 713.43 -15.46 713.43 C-24.41 713.44 -33.36 713.43 -42.32 713.42 C-46.89 713.41 -51.46 713.41 -56.03 713.41 C-60.21 713.41 -64.39 713.41 -68.57 713.4 C-70.09 713.39 -71.6 713.39 -73.12 713.4 C-75.17 713.4 -77.23 713.39 -79.28 713.39 C-80.42 713.39 -81.57 713.38 -82.74 713.38 C-85.53 713.13 -85.53 713.13 -88.53 711.13 C-87.66 707.26 -87.66 707.26 -86.53 706.13 C-84.56 706.03 -82.59 706.01 -80.61 706.01 C-79.32 706.01 -78.03 706 -76.69 706 C-75.24 706.01 -73.78 706.01 -72.33 706.01 C-70.8 706.01 -69.26 706.01 -67.73 706.01 C-63.51 706.01 -59.28 706.01 -55.05 706.02 C-50.5 706.02 -45.95 706.02 -41.4 706.02 C-33.5 706.02 -25.61 706.02 -17.72 706.03 C-6.31 706.03 5.1 706.04 16.52 706.04 C35.03 706.04 53.54 706.05 72.05 706.06 C90.04 706.07 108.03 706.07 126.02 706.08 C127.12 706.08 128.23 706.08 129.37 706.08 C134.93 706.08 140.49 706.08 146.05 706.08 C192.19 706.09 238.33 706.11 284.47 706.13 C284.56 689.01 284.63 671.88 284.68 654.76 C284.7 646.81 284.72 638.86 284.77 630.91 C284.81 623.97 284.84 617.04 284.84 610.11 C284.85 606.44 284.86 602.78 284.89 599.11 C284.92 595.01 284.92 590.91 284.92 586.82 C284.94 585.6 284.95 584.38 284.97 583.13 C285 576.74 285 576.74 282.6 570.97 C280.15 568.85 277.67 566.89 275.03 565.01 C270.59 561.78 266.37 558.41 262.22 554.82 C256.78 550.13 251.13 545.82 245.36 541.55 C240.12 537.66 235.1 533.57 230.12 529.36 C227.11 526.83 224.03 524.42 220.92 522.02 C211.73 514.94 202.67 507.72 193.71 500.37 C193.07 499.85 192.43 499.32 191.77 498.78 C191.2 498.32 190.64 497.86 190.06 497.38 C185.89 494.11 183.63 493.89 178.38 493.94 C177.67 493.94 176.95 493.94 176.21 493.94 C174.65 493.95 173.1 493.96 171.54 493.98 C169.08 494.01 166.61 494.02 164.15 494.03 C158.92 494.05 153.7 494.09 148.47 494.13 C142.41 494.18 136.35 494.22 130.3 494.24 C127.87 494.26 125.44 494.28 123.01 494.31 C121.53 494.31 120.04 494.32 118.55 494.33 C117.26 494.34 115.96 494.35 114.62 494.36 C111.47 494.13 111.47 494.13 108.47 492.13 C107.65 487.56 109.53 484.74 111.84 480.88 C112.2 480.28 112.56 479.68 112.92 479.06 C113.69 477.76 114.47 476.46 115.25 475.16 C116.48 473.11 117.7 471.04 118.91 468.96 C124.9 458.71 130.98 448.51 137.15 438.36 C139.66 434.23 142.06 430.08 144.34 425.82 C147.16 420.59 150.26 415.57 153.39 410.53 C155.51 407.06 157.53 403.55 159.53 400.01 C161.94 395.74 164.43 391.56 167.09 387.44 C169.9 383.1 172.42 378.66 174.86 374.09 C176.44 371.19 178.07 368.34 179.75 365.49 C180.67 363.91 180.67 363.91 181.61 362.31 C182.53 360.73 182.53 360.73 183.47 359.13 C184.55 357.27 185.64 355.41 186.72 353.55 C187.53 352.17 187.53 352.17 188.35 350.76 C189.51 348.77 190.67 346.78 191.84 344.79 C194.96 339.43 198.08 334.08 201.21 328.73 C202.42 326.66 203.63 324.58 204.84 322.51 C205.43 321.5 206.02 320.5 206.62 319.46 C209.75 314.1 212.85 308.72 215.91 303.32 C218.72 298.36 221.73 293.56 224.82 288.77 C227.01 285.26 228.93 281.64 230.88 278 C232.61 274.88 234.46 271.85 236.34 268.82 C240.93 261.44 245.22 253.9 249.48 246.33 C253.44 239.31 257.52 232.41 261.89 225.63 C263.75 222.69 265.43 219.69 267.1 216.64 C271.74 208.16 276.58 199.88 281.82 191.77 C284.01 188.27 285.93 184.65 287.87 181.01 C289.64 177.82 291.54 174.73 293.47 171.63 C295.84 167.83 298.11 164.02 300.22 160.07 C303.61 153.73 307.36 147.62 311.07 141.48 C314.23 136.24 317.24 130.96 320.11 125.57 C321.63 122.85 323.28 120.25 324.97 117.63 C327.78 113.28 330.3 108.84 332.75 104.27 C337.8 95.06 343.25 86.06 348.78 77.13 C351.34 73 353.8 68.83 356.13 64.57 C360.25 57.07 364.45 49.63 369.09 42.44 C371.87 38.15 374.37 33.77 376.78 29.26 C378.92 25.29 381.13 21.37 383.34 17.44 C383.75 16.72 384.16 16 384.57 15.26 C385.54 13.55 386.5 11.84 387.47 10.13 C385.63 8.3 382.7 9 380.24 8.99 C379.58 8.99 378.92 8.99 378.24 8.98 C375.99 8.98 373.75 8.97 371.5 8.97 C369.89 8.97 368.28 8.96 366.66 8.96 C362.21 8.94 357.75 8.94 353.3 8.93 C348.5 8.92 343.7 8.91 338.91 8.9 C330.59 8.87 322.27 8.86 313.95 8.84 C301.92 8.82 289.9 8.79 277.87 8.76 C258.36 8.71 238.85 8.67 219.34 8.63 C200.38 8.59 181.42 8.55 162.47 8.5 C160.72 8.5 160.72 8.5 158.93 8.5 C153.07 8.48 147.21 8.47 141.36 8.45 C92.73 8.34 44.1 8.23 -4.53 8.13 C-4.83 8.9 -5.13 9.68 -5.44 10.47 C-6.61 13.33 -8.08 15.68 -9.78 18.26 C-12.08 21.8 -14.24 25.34 -16.22 29.07 C-22.46 40.73 -29.47 52.01 -36.64 63.12 C-39.81 68.17 -42.85 73.31 -45.9 78.43 C-49.19 83.94 -52.55 89.39 -55.97 94.82 C-58.91 99.48 -61.72 104.15 -64.33 109 C-66.26 112.42 -68.43 115.69 -70.59 118.97 C-72.24 121.65 -73.74 124.35 -75.23 127.12 C-78.89 133.89 -82.89 140.44 -86.91 147.01 C-87.63 148.2 -88.35 149.38 -89.08 150.57 C-92.63 156.4 -96.2 162.22 -99.78 168.03 C-102.6 172.61 -105.4 177.2 -108.16 181.82 C-108.92 183.09 -109.67 184.36 -110.43 185.62 C-110.79 186.22 -111.15 186.82 -111.52 187.44 C-112.92 189.78 -114.32 192.11 -115.72 194.44 C-116.19 195.22 -116.65 196 -117.14 196.81 C-121.53 204.13 -121.53 204.13 -123.04 206.64 C-124.03 208.29 -125.01 209.94 -126 211.6 C-128.63 216.01 -131.31 220.37 -134.09 224.69 C-136.64 228.66 -138.97 232.68 -141.22 236.82 C-143.28 240.45 -145.58 243.93 -147.84 247.44 C-149.33 249.81 -150.7 252.18 -152.03 254.63 C-153.89 258.06 -155.92 261.35 -158.03 264.63 C-160.09 267.84 -162.08 271.04 -163.91 274.38 C-168.77 283.28 -174.17 291.89 -179.44 300.55 C-180.52 302.33 -181.59 304.1 -182.67 305.87 C-183.41 307.09 -184.15 308.3 -184.89 309.52 C-189.87 317.71 -194.8 325.93 -199.66 334.19 C-211.64 354.54 -211.64 354.54 -215.53 357.13 C-218.19 357.38 -218.19 357.38 -221.47 357.39 C-222.72 357.39 -223.96 357.4 -225.25 357.4 C-226.64 357.4 -228.03 357.4 -229.43 357.39 C-230.9 357.4 -232.37 357.4 -233.84 357.4 C-237.9 357.41 -241.96 357.41 -246.02 357.41 C-250.39 357.41 -254.76 357.41 -259.13 357.42 C-267.7 357.43 -276.27 357.44 -284.84 357.43 C-291.8 357.43 -298.77 357.43 -305.73 357.44 C-307.21 357.44 -307.21 357.44 -308.73 357.44 C-310.74 357.44 -312.75 357.44 -314.76 357.44 C-333.62 357.45 -352.48 357.45 -371.35 357.45 C-388.62 357.44 -405.89 357.45 -423.17 357.47 C-440.89 357.49 -458.61 357.5 -476.33 357.5 C-486.28 357.49 -496.24 357.5 -506.19 357.51 C-514.66 357.52 -523.14 357.52 -531.61 357.51 C-535.94 357.51 -540.26 357.5 -544.59 357.52 C-548.55 357.53 -552.5 357.52 -556.46 357.51 C-557.9 357.51 -559.33 357.51 -560.77 357.52 C-562.71 357.53 -564.65 357.52 -566.6 357.51 C-567.68 357.51 -568.76 357.51 -569.87 357.51 C-572.53 357.13 -572.53 357.13 -574.38 355.77 C-576.07 353.37 -575.89 351.51 -575.86 348.6 C-575.85 347.48 -575.85 346.35 -575.84 345.2 C-575.81 343.43 -575.81 343.43 -575.78 341.63 C-575.78 340.52 -575.77 339.4 -575.77 338.25 C-575.68 328.18 -575.06 318.21 -574.53 308.13 C-634.92 307.8 -695.31 307.47 -757.53 307.13 C-757.53 335.18 -757.53 363.23 -757.53 392.13 C-758.03 421.26 -758.03 421.26 -758.31 434.32 C-758.62 449.89 -758.59 465.46 -758.57 481.04 C-758.56 484.9 -758.56 488.76 -758.56 492.63 C-758.55 500.13 -758.54 507.63 -758.53 515.13 C-756.7 515.13 -756.7 515.13 -754.82 515.12 C-725.79 515.03 -696.76 514.97 -667.73 514.93 C-664.15 514.92 -660.58 514.92 -657.01 514.91 C-655.95 514.91 -655.95 514.91 -654.86 514.91 C-643.34 514.89 -631.81 514.86 -620.29 514.82 C-608.48 514.79 -596.66 514.76 -584.84 514.76 C-578.2 514.75 -571.56 514.74 -564.93 514.71 C-558.68 514.68 -552.44 514.67 -546.19 514.68 C-543.9 514.68 -541.6 514.67 -539.3 514.65 C-536.18 514.63 -533.05 514.64 -529.93 514.65 C-528.55 514.63 -528.55 514.63 -527.15 514.62 C-521.14 514.67 -521.14 514.67 -518.46 516.69 C-517.19 520.03 -517.15 523.12 -517.21 526.64 C-517.21 527.39 -517.21 528.15 -517.21 528.94 C-517.22 531.48 -517.25 534.02 -517.28 536.57 C-517.29 538.39 -517.3 540.21 -517.31 542.04 C-517.34 546.99 -517.38 551.94 -517.43 556.89 C-517.48 562.07 -517.51 567.24 -517.54 572.42 C-517.6 582.22 -517.68 592.02 -517.76 601.82 C-517.85 612.97 -517.93 624.13 -518.01 635.28 C-518.16 658.23 -518.34 681.18 -518.53 704.13 C-517.87 704.13 -517.21 704.13 -516.53 704.13 C-516.53 704.79 -516.53 705.45 -516.53 706.13 C-419.18 706.13 -321.83 706.13 -221.53 706.13 C-220.87 707.45 -220.21 708.77 -219.53 710.13 C-221.23 712.25 -222.11 713.06 -224.82 713.51 C-226.19 713.51 -226.19 713.51 -227.58 713.51 C-229.15 713.52 -229.15 713.52 -230.76 713.53 C-231.91 713.52 -233.07 713.51 -234.26 713.51 C-235.49 713.51 -236.71 713.51 -237.97 713.52 C-241.38 713.53 -244.79 713.52 -248.2 713.51 C-251.87 713.5 -255.54 713.51 -259.22 713.51 C-266.41 713.52 -273.61 713.52 -280.81 713.51 C-289.19 713.49 -297.56 713.49 -305.94 713.5 C-320.88 713.5 -335.82 713.49 -350.77 713.47 C-365.28 713.45 -379.79 713.44 -394.3 713.45 C-410.08 713.45 -425.87 713.45 -441.66 713.44 C-443.34 713.44 -445.03 713.44 -446.71 713.44 C-447.54 713.44 -448.36 713.44 -449.22 713.44 C-455.06 713.43 -460.9 713.43 -466.75 713.43 C-473.87 713.44 -480.98 713.43 -488.1 713.42 C-491.73 713.41 -495.37 713.41 -499 713.41 C-502.94 713.42 -506.87 713.4 -510.8 713.39 C-511.96 713.4 -513.11 713.4 -514.31 713.4 C-515.36 713.4 -516.4 713.39 -517.49 713.39 C-518.85 713.38 -518.85 713.38 -520.24 713.38 C-522.53 713.13 -522.53 713.13 -525.53 711.13 C-525.83 708.6 -525.92 706.32 -525.89 703.79 C-525.89 703.03 -525.9 702.26 -525.9 701.47 C-525.91 698.89 -525.89 696.32 -525.87 693.74 C-525.87 691.9 -525.87 690.05 -525.87 688.21 C-525.87 683.2 -525.86 678.18 -525.84 673.17 C-525.82 667.93 -525.82 662.7 -525.81 657.46 C-525.8 647.54 -525.78 637.62 -525.75 627.7 C-525.71 616.41 -525.7 605.12 -525.68 593.83 C-525.65 570.6 -525.6 547.36 -525.53 524.13 C-527.36 524.13 -527.36 524.13 -529.22 524.12 C-558.1 524.07 -586.98 523.99 -615.85 523.9 C-619.41 523.89 -622.96 523.88 -626.51 523.87 C-627.22 523.87 -627.93 523.86 -628.66 523.86 C-640.12 523.83 -651.58 523.8 -663.03 523.78 C-674.79 523.76 -686.54 523.73 -698.3 523.68 C-704.9 523.66 -711.51 523.64 -718.11 523.63 C-724.32 523.63 -730.54 523.61 -736.75 523.58 C-739.03 523.57 -741.31 523.56 -743.6 523.57 C-746.71 523.57 -749.82 523.55 -752.93 523.53 C-753.84 523.54 -754.75 523.54 -755.68 523.54 C-760.4 523.49 -763.78 523.33 -767.53 520.13 C-768.14 517.29 -768.14 517.29 -768.12 513.78 C-768.12 513.13 -768.12 512.49 -768.12 511.82 C-768.12 509.67 -768.09 507.52 -768.05 505.37 C-768.05 503.84 -768.04 502.32 -768.04 500.79 C-768.03 496.68 -767.99 492.57 -767.93 488.46 C-767.89 484.13 -767.87 479.81 -767.84 475.49 C-767.71 454.36 -767.44 433.23 -766.95 412.12 C-766.64 398.26 -766.48 384.41 -766.4 370.55 C-766.37 364.53 -766.32 358.51 -766.28 352.48 C-766.23 346.5 -766.21 340.51 -766.2 334.52 C-766.19 330.77 -766.16 327.03 -766.12 323.28 C-766.11 321.52 -766.11 319.76 -766.11 317.99 C-766.11 315.56 -766.09 313.13 -766.06 310.7 C-766.07 309.99 -766.07 309.27 -766.08 308.54 C-766.02 305.45 -765.79 303.5 -763.98 300.95 C-760.66 298.48 -757.77 298.58 -753.78 298.63 C-753 298.62 -752.21 298.62 -751.4 298.61 C-748.77 298.6 -746.13 298.61 -743.5 298.63 C-741.61 298.63 -739.73 298.62 -737.84 298.61 C-732.71 298.6 -727.58 298.61 -722.45 298.63 C-717.09 298.64 -711.73 298.63 -706.37 298.63 C-697.37 298.63 -688.37 298.64 -679.36 298.66 C-668.95 298.69 -658.53 298.69 -648.11 298.68 C-638.1 298.67 -628.09 298.68 -618.08 298.69 C-613.81 298.7 -609.55 298.7 -605.28 298.69 C-600.26 298.69 -595.25 298.7 -590.23 298.72 C-588.38 298.72 -586.54 298.72 -584.69 298.72 C-582.18 298.71 -579.67 298.73 -577.15 298.74 C-576.05 298.73 -576.05 298.73 -574.93 298.73 C-570 298.79 -570 298.79 -567.84 300.36 C-566.15 302.65 -566.17 303.96 -566.19 306.79 C-566.19 307.73 -566.19 308.67 -566.19 309.64 C-566.21 310.65 -566.22 311.66 -566.24 312.71 C-566.24 313.74 -566.25 314.78 -566.25 315.85 C-566.27 319.18 -566.31 322.5 -566.34 325.82 C-566.36 328.07 -566.37 330.32 -566.39 332.57 C-566.42 338.09 -566.47 343.61 -566.53 349.13 C-522.3 349.23 -478.07 349.28 -433.84 349.26 C-428.62 349.26 -423.4 349.26 -418.18 349.25 C-417.14 349.25 -416.1 349.25 -415.03 349.25 C-398.2 349.25 -381.36 349.28 -364.53 349.32 C-347.26 349.36 -329.99 349.37 -312.72 349.34 C-302.06 349.32 -291.4 349.34 -280.74 349.39 C-273.44 349.42 -266.13 349.41 -258.83 349.38 C-254.61 349.36 -250.39 349.36 -246.17 349.4 C-242.31 349.44 -238.45 349.43 -234.59 349.38 C-233.2 349.38 -231.8 349.38 -230.4 349.41 C-226.26 349.49 -222.49 349.42 -218.53 348.13 C-215.62 345.13 -214.14 341.95 -212.53 338.13 C-211.75 336.82 -210.95 335.53 -210.11 334.25 C-209.73 333.65 -209.35 333.05 -208.96 332.43 C-208.57 331.82 -208.18 331.2 -207.78 330.57 C-203.88 324.37 -200.12 318.1 -196.43 311.78 C-189.69 300.26 -182.95 288.74 -175.66 277.57 C-172.63 272.94 -169.9 268.22 -167.3 263.34 C-163.46 256.37 -159.26 249.61 -155.15 242.81 C-153.03 239.29 -150.92 235.77 -148.81 232.25 C-144.35 224.79 -139.84 217.35 -135.27 209.95 C-132.65 205.7 -130.09 201.42 -127.53 197.13 C-126.53 195.46 -125.53 193.8 -124.53 192.13 C-124.03 191.3 -123.53 190.47 -123.02 189.61 C-119.87 184.36 -116.72 179.12 -113.57 173.87 C-113.05 173 -113.05 173 -112.52 172.1 C-111.76 170.85 -111.01 169.59 -110.25 168.33 C-108.13 164.79 -106 161.25 -103.88 157.71 C-98.3 148.37 -92.67 139.07 -87.02 129.78 C-80.8 119.54 -74.64 109.28 -68.59 98.94 C-62.16 87.97 -55.5 77.13 -48.9 66.27 C-43.41 57.24 -37.95 48.2 -32.53 39.13 C-31.47 37.36 -30.41 35.59 -29.34 33.82 C-28.88 33.04 -28.41 32.26 -27.93 31.46 C-23.53 24.13 -23.53 24.13 -22.03 21.64 C-21.02 19.95 -20.02 18.26 -19.03 16.56 C-9.31 0.01 -9.31 0.01 0 0 Z " fill="#020409" transform="translate(825.5315160751343,85.86857223510742)"/>
<path d="M0 0 C0.83 -0 1.67 -0 2.53 -0 C4.28 -0 6.04 -0 7.8 0 C10.46 0.01 13.12 0 15.79 -0 C24 -0.01 32.07 0.07 40.23 1.13 C41.18 5.11 41.36 8.82 41.37 12.91 C41.37 13.58 41.38 14.25 41.38 14.94 C41.38 17.17 41.38 19.41 41.38 21.64 C41.39 23.25 41.39 24.85 41.39 26.46 C41.42 41.11 41.39 55.76 41.34 70.41 C41.31 81.23 41.3 92.05 41.33 102.86 C41.35 110.48 41.33 118.1 41.3 125.72 C41.28 130.27 41.27 134.81 41.3 139.35 C41.32 143.64 41.31 147.92 41.26 152.2 C41.25 153.76 41.26 155.32 41.28 156.88 C41.41 168.36 38.87 174.99 32.23 184.13 C31.42 185.56 30.62 186.99 29.86 188.45 C27.2 193.33 24.21 197.99 21.25 202.7 C17.64 208.43 14.2 214.26 10.79 220.11 C7.89 225.07 4.85 229.91 1.74 234.74 C-0.09 237.65 -1.76 240.63 -3.41 243.65 C-8.4 252.77 -13.64 261.7 -19.26 270.45 C-22.08 274.88 -24.48 279.4 -26.77 284.13 C-27.43 283.8 -28.09 283.47 -28.77 283.13 C-29.05 280.61 -29.23 278.17 -29.33 275.63 C-29.12 271.01 -29.12 271.01 -30.77 267.13 C-32.57 267.02 -34.39 266.99 -36.2 266.97 C-37.38 266.96 -38.56 266.96 -39.77 266.94 C-41.08 266.94 -42.39 266.93 -43.73 266.93 C-45.11 266.92 -46.49 266.91 -47.87 266.9 C-51.63 266.87 -55.38 266.85 -59.14 266.83 C-63.06 266.81 -66.98 266.78 -70.9 266.75 C-78.33 266.7 -85.76 266.66 -93.19 266.62 C-101.65 266.57 -110.11 266.51 -118.56 266.46 C-135.96 266.34 -153.36 266.24 -170.77 266.13 C-170.77 261.83 -168.5 258.96 -166.33 255.38 C-165.65 254.25 -165.65 254.25 -164.96 253.1 C-163.57 250.77 -162.17 248.45 -160.77 246.13 C-159.95 244.76 -159.13 243.4 -158.31 242.03 C-156.13 238.39 -153.95 234.76 -151.77 231.13 C-150.7 229.36 -149.64 227.59 -148.58 225.82 C-142.77 216.13 -142.77 216.13 -141.27 213.64 C-140.26 211.96 -139.26 210.28 -138.27 208.6 C-137.77 207.76 -137.28 206.93 -136.77 206.07 C-136.33 205.34 -135.9 204.6 -135.45 203.85 C-134.62 202.5 -134.62 202.5 -133.77 201.13 C-133.39 200.41 -133.02 199.68 -132.63 198.94 C-129.06 192.65 -129.06 192.65 -125.65 191.3 C-123.09 190.98 -120.67 190.95 -118.09 191.02 C-116.65 191 -116.65 191 -115.19 190.99 C-112.04 190.96 -108.89 191 -105.74 191.04 C-103.55 191.03 -101.36 191.02 -99.18 191.01 C-93.43 190.98 -87.68 191.01 -81.92 191.05 C-76.05 191.08 -70.18 191.06 -64.31 191.05 C-52.79 191.03 -41.28 191.06 -29.77 191.13 C-29.77 190.15 -29.77 190.15 -29.77 189.15 C-29.79 173.04 -29.81 156.93 -29.82 140.82 C-29.82 133.03 -29.83 125.24 -29.84 117.45 C-29.85 110.64 -29.86 103.83 -29.86 97.02 C-29.86 93.43 -29.86 89.84 -29.87 86.25 C-29.89 77.58 -29.87 68.9 -29.78 60.22 C-29.77 58.79 -29.76 57.36 -29.75 55.93 C-29.72 51.39 -29.66 46.86 -29.57 42.33 C-29.55 40.9 -29.53 39.47 -29.52 38.04 C-29.42 26.23 -27.38 19.98 -19.77 11.13 C-18.6 8.84 -17.69 6.54 -16.77 4.13 C-16.11 4.13 -15.45 4.13 -14.77 4.13 C-14.77 3.14 -14.77 2.15 -14.77 1.13 C-9.79 0.14 -5.05 -0.01 0 0 Z " fill="#8F271C" transform="translate(847.765625,114.8671875)"/>
<path d="M0 0 C0.98 8.49 -1.28 13.1 -6 20 C-6.97 21.6 -7.93 23.2 -8.88 24.81 C-11.13 28.58 -13.44 32.33 -15.75 36.06 C-21.72 45.75 -27.5 55.55 -33.09 65.46 C-36.48 71.48 -40.08 77.31 -43.85 83.1 C-46.34 86.92 -48.6 90.79 -50.76 94.8 C-52.22 97.39 -53.82 99.88 -55.44 102.38 C-58.91 107.77 -61.98 113.34 -65 119 C-66.97 122.63 -69.04 126.11 -71.5 129.44 C-73.79 132.56 -75.48 135.79 -77.11 139.3 C-78 141 -78 141 -80 143 C-82.64 143.25 -82.64 143.25 -86.05 143.24 C-87.34 143.24 -88.63 143.25 -89.96 143.25 C-91.4 143.24 -92.83 143.23 -94.27 143.23 C-95.78 143.23 -97.29 143.23 -98.79 143.23 C-102.9 143.23 -107 143.22 -111.1 143.2 C-115.38 143.19 -119.66 143.19 -123.95 143.19 C-132.06 143.18 -140.17 143.16 -148.29 143.14 C-157.52 143.12 -166.76 143.11 -175.99 143.1 C-195 143.08 -214 143.04 -233 143 C-233 140 -233 140 -232 138 C-231.29 137.72 -230.59 137.44 -229.86 137.14 C-226.36 135.74 -223.37 133.76 -220.25 131.69 C-216.43 129.19 -212.65 126.72 -208.62 124.56 C-203.68 121.9 -198.98 118.87 -194.24 115.87 C-189.7 113.02 -185.11 110.31 -180.44 107.69 C-176.9 105.69 -173.45 103.73 -170.19 101.31 C-167.12 99.09 -164.04 97.32 -160.72 95.51 C-152.33 90.85 -144.12 85.84 -136.19 80.43 C-134.09 79.06 -131.97 77.84 -129.77 76.65 C-125.29 74.18 -120.92 71.56 -116.56 68.88 C-114.98 67.9 -113.39 66.93 -111.81 65.96 C-111.01 65.47 -110.21 64.97 -109.39 64.47 C-105.64 62.16 -101.88 59.86 -98.12 57.56 C-97.39 57.11 -96.66 56.67 -95.91 56.21 C-90.15 52.69 -84.36 49.21 -78.56 45.75 C-72.43 42.08 -66.35 38.37 -60.35 34.5 C-58.03 33.02 -55.68 31.59 -53.31 30.19 C-48.86 27.54 -44.46 24.81 -40.06 22.06 C-39.03 21.41 -39.03 21.41 -37.97 20.75 C-33.98 18.26 -30.02 15.73 -26.06 13.19 C-22.16 10.7 -18.2 8.4 -14.13 6.2 C-11.26 4.59 -8.54 2.77 -5.82 0.92 C-4 0 -4 0 0 0 Z " fill="#0A314D" transform="translate(796,430)"/>
<path d="M0 0 C0.97 -0.01 1.95 -0.01 2.95 -0.02 C4.54 -0.02 4.54 -0.02 6.17 -0.02 C7.25 -0.03 8.33 -0.03 9.44 -0.03 C11.74 -0.04 14.03 -0.04 16.32 -0.04 C19.84 -0.04 23.36 -0.06 26.88 -0.08 C29.1 -0.08 31.32 -0.08 33.54 -0.09 C34.6 -0.09 35.66 -0.1 36.75 -0.11 C37.73 -0.1 38.7 -0.1 39.71 -0.1 C41.01 -0.1 41.01 -0.1 42.33 -0.1 C44.42 0.15 44.42 0.15 46.42 2.15 C46.72 4.28 46.72 4.28 46.8 6.9 C46.83 7.84 46.87 8.77 46.9 9.74 C46.93 10.72 46.96 11.7 46.98 12.71 C47.04 14.65 47.11 16.59 47.17 18.52 C47.2 19.39 47.22 20.25 47.25 21.14 C47.2 23.14 47.2 23.14 48.42 24.15 C50.47 24.29 52.52 24.37 54.57 24.43 C56.45 24.48 56.45 24.48 58.36 24.54 C59.68 24.57 61 24.61 62.36 24.65 C64.95 24.71 67.54 24.79 70.14 24.86 C71.29 24.89 72.45 24.92 73.64 24.96 C76.42 25.15 76.42 25.15 78.42 26.15 C78.92 38.03 78.92 38.03 79.42 50.15 C84.27 50.43 84.27 50.43 89.11 50.71 C94.2 51.03 94.2 51.03 96.42 52.15 C96.42 72.28 96.42 92.41 96.42 113.15 C91.47 113.15 86.52 113.15 81.42 113.15 C78.82 110.54 79.12 109.32 79.01 105.7 C78.95 104.25 78.95 104.25 78.9 102.76 C78.86 101.53 78.83 100.29 78.8 99.02 C78.67 95.1 78.55 91.18 78.42 87.15 C68.19 87.15 57.96 87.15 47.42 87.15 C47.09 95.07 46.76 102.99 46.42 111.15 C29.59 111.15 12.76 111.15 -4.58 111.15 C-6.3 107.71 -5.7 103.76 -5.68 99.98 C-5.68 99.07 -5.67 98.17 -5.67 97.23 C-5.67 94.33 -5.66 91.42 -5.64 88.52 C-5.64 86.55 -5.63 84.59 -5.63 82.62 C-5.62 77.8 -5.6 72.97 -5.58 68.15 C-2.2 66.46 1.64 66.9 5.37 66.83 C6.25 66.81 7.14 66.79 8.05 66.77 C10.88 66.7 13.71 66.64 16.55 66.58 C18.46 66.54 20.38 66.5 22.3 66.45 C27.01 66.34 31.71 66.24 36.42 66.15 C36.45 61.83 36.47 57.52 36.48 53.21 C36.5 51.36 36.5 51.36 36.51 49.48 C36.51 48.31 36.51 47.14 36.52 45.93 C36.52 44.85 36.53 43.76 36.53 42.65 C36.7 40.2 36.7 40.2 35.42 39.15 C32.56 39.01 29.72 38.93 26.86 38.9 C25.1 38.87 23.33 38.83 21.57 38.8 C18.77 38.75 15.97 38.71 13.18 38.67 C10.49 38.63 7.8 38.58 5.11 38.52 C4.27 38.52 3.43 38.51 2.57 38.5 C-3.35 38.37 -3.35 38.37 -5.58 36.15 C-5.77 33.5 -5.84 30.97 -5.81 28.33 C-5.81 27.56 -5.81 26.79 -5.81 25.99 C-5.81 24.36 -5.8 22.73 -5.79 21.1 C-5.77 18.59 -5.77 16.08 -5.77 13.58 C-5.76 11.99 -5.75 10.41 -5.75 8.83 C-5.75 8.07 -5.75 7.32 -5.74 6.54 C-5.68 0.03 -5.68 0.03 0 0 Z " fill="#F9FCFE" transform="translate(400.579833984375,630.854736328125)"/>
<path d="M0 0 C3.29 0.11 6.58 0.14 9.87 0.17 C11.97 0.2 14.08 0.23 16.18 0.27 C17.65 0.3 17.65 0.3 19.14 0.32 C20.05 0.35 20.96 0.39 21.9 0.42 C22.69 0.44 23.49 0.47 24.31 0.49 C27 1.02 28.45 2.15 30.5 3.92 C29.32 4.58 29.32 4.58 28.11 5.25 C20.24 9.67 12.57 14.36 4.96 19.21 C-0.8 22.88 -6.63 26.43 -12.5 29.92 C-19.06 33.83 -25.55 37.82 -32 41.92 C-39.33 46.59 -46.74 51.1 -54.21 55.55 C-60.8 59.49 -67.32 63.52 -73.82 67.61 C-77.3 69.8 -80.8 71.96 -84.31 74.11 C-88.29 76.55 -92.25 79.03 -96.18 81.54 C-100.3 84.18 -104.47 86.71 -108.67 89.21 C-112.1 91.28 -115.48 93.41 -118.87 95.54 C-126.04 100.05 -133.29 104.42 -140.58 108.72 C-144.24 110.89 -147.81 113.09 -151.26 115.59 C-154.03 117.59 -156.72 119.23 -159.75 120.79 C-164.65 123.4 -169.28 126.31 -173.89 129.4 C-176.68 131.03 -179.4 132 -182.5 132.92 C-181.92 129.1 -180.84 126.44 -178.81 123.17 C-178.27 122.3 -177.73 121.43 -177.17 120.53 C-175.62 118.12 -174.04 115.73 -172.43 113.36 C-170.55 110.56 -168.8 107.75 -167.18 104.79 C-166.78 104.06 -166.37 103.33 -165.96 102.58 C-165.15 101.11 -164.35 99.65 -163.56 98.17 C-158.72 89.17 -154.56 83.08 -145.5 77.92 C-144.28 77.16 -143.07 76.4 -141.87 75.64 C-138.46 73.48 -135.03 71.34 -131.6 69.22 C-128.19 67.11 -124.78 64.98 -121.37 62.86 C-120.71 62.45 -120.05 62.03 -119.37 61.61 C-114.9 58.82 -110.48 55.97 -106.06 53.11 C-101.61 50.22 -97.11 47.54 -92.44 45.03 C-90.52 43.93 -88.77 42.73 -87 41.42 C-84.61 39.66 -82.23 38.18 -79.62 36.79 C-74.91 34.25 -70.47 31.35 -66 28.42 C-60.94 25.11 -55.9 21.92 -50.57 19.07 C-48.13 17.71 -45.79 16.24 -43.43 14.73 C-42.54 14.17 -41.65 13.62 -40.73 13.04 C-38.45 11.55 -36.4 10.07 -34.29 8.39 C-23.35 0.1 -13.43 -0.44 0 0 Z " fill="#8E261B" transform="translate(769.4951171875,399.080810546875)"/>
<path d="M0 0 C1.26 -0.01 2.52 -0.01 3.82 -0.02 C5.23 -0.01 6.63 -0.01 8.03 -0 C9.5 -0.01 10.97 -0.01 12.45 -0.02 C16.45 -0.02 20.46 -0.02 24.46 -0.01 C28.65 -0.01 32.83 -0.01 37.02 -0.02 C44.05 -0.02 51.08 -0.02 58.11 -0.01 C66.25 0 74.38 0 82.51 -0.01 C89.49 -0.02 96.47 -0.02 103.45 -0.02 C107.62 -0.01 111.79 -0.01 115.96 -0.02 C119.88 -0.02 123.8 -0.02 127.72 -0.01 C129.16 -0.01 130.6 -0.01 132.04 -0.01 C134 -0.02 135.97 -0.01 137.93 0 C139.03 0 140.13 0 141.26 0 C143.96 0.25 143.96 0.25 146.96 2.25 C146.3 2.25 145.64 2.25 144.96 2.25 C144.72 3.1 144.48 3.95 144.23 4.83 C142.83 8.61 140.89 11.75 138.65 15.07 C135.59 19.72 132.66 24.37 130.04 29.29 C129.68 29.94 129.33 30.59 128.96 31.25 C128.58 32.11 128.19 32.96 127.79 33.84 C125.96 36.25 125.96 36.25 123.19 36.87 C121.49 36.86 121.49 36.86 119.76 36.86 C118.46 36.86 117.16 36.87 115.82 36.88 C114.37 36.86 112.93 36.84 111.49 36.82 C109.97 36.82 108.45 36.82 106.93 36.82 C102.81 36.83 98.69 36.8 94.56 36.76 C90.26 36.73 85.95 36.73 81.64 36.72 C73.48 36.71 65.32 36.66 57.16 36.61 C47.87 36.56 38.58 36.53 29.29 36.51 C10.18 36.45 -8.93 36.37 -28.04 36.25 C-28.37 35.59 -28.7 34.93 -29.04 34.25 C-28.38 34.25 -27.72 34.25 -27.04 34.25 C-26.77 33.55 -26.5 32.85 -26.22 32.13 C-23.47 25.45 -19.81 19.39 -16.04 13.25 C-15.43 12.26 -14.82 11.26 -14.2 10.23 C-13.59 9.25 -12.98 8.27 -12.35 7.25 C-11.79 6.35 -11.23 5.44 -10.65 4.5 C-7.57 0.22 -4.99 0 0 0 Z " fill="#8F271C" transform="translate(819.03515625,465.74603271484375)"/>
<path d="M0 0 C2.61 -0.37 2.61 -0.37 6 -0.37 C7.92 -0.38 7.92 -0.38 9.87 -0.38 C11.3 -0.38 12.72 -0.37 14.15 -0.36 C15.64 -0.36 17.14 -0.36 18.63 -0.36 C22.7 -0.37 26.76 -0.35 30.83 -0.34 C35.08 -0.32 39.33 -0.32 43.58 -0.32 C50.71 -0.32 57.85 -0.3 64.98 -0.28 C74.15 -0.25 83.32 -0.24 92.48 -0.24 C100.35 -0.23 108.22 -0.22 116.09 -0.21 C118.63 -0.2 121.16 -0.2 123.7 -0.2 C127.68 -0.19 131.66 -0.18 135.64 -0.17 C137.1 -0.16 138.56 -0.16 140.03 -0.16 C142.02 -0.16 144.01 -0.15 146 -0.14 C147.68 -0.14 147.68 -0.14 149.39 -0.13 C152 0 152 0 154 1 C152.81 5.44 151.06 8.49 148.35 12.1 C146.94 14.08 145.78 16.11 144.62 18.25 C137.39 31.61 137.39 31.61 134 35 C132.03 35.1 130.05 35.12 128.07 35.12 C126.78 35.12 125.49 35.12 124.17 35.12 C122.72 35.12 121.28 35.12 119.84 35.11 C118.33 35.11 116.83 35.11 115.32 35.11 C111.21 35.11 107.11 35.11 103 35.1 C98.72 35.1 94.43 35.09 90.15 35.09 C82.03 35.09 73.91 35.08 65.78 35.07 C56.54 35.06 47.3 35.06 38.06 35.05 C19.04 35.04 0.02 35.02 -19 35 C-19 30.87 -17.02 28.11 -15 24.62 C-14.6 23.92 -14.19 23.21 -13.78 22.48 C-9.4 14.86 -4.88 7.31 0 0 Z " fill="#8F281D" transform="translate(768,538)"/>
<path d="M0 0 C1.41 0.04 2.81 0.07 4.22 0.11 C5.72 0.11 7.21 0.11 8.71 0.1 C12.75 0.08 16.8 0.14 20.84 0.21 C25.08 0.27 29.31 0.27 33.55 0.28 C40.65 0.3 47.76 0.36 54.86 0.45 C64.89 0.58 74.92 0.63 84.95 0.67 C92.74 0.7 100.52 0.75 108.31 0.81 C109.14 0.81 109.98 0.82 110.84 0.83 C115.64 0.86 120.44 0.9 125.23 0.96 C126.69 0.98 128.14 0.99 129.6 1 C131.58 1.02 133.56 1.05 135.54 1.08 C136.65 1.09 137.76 1.1 138.9 1.11 C141.51 1.39 141.51 1.39 143.51 3.39 C142.9 4.39 142.3 5.39 141.68 6.43 C140.87 7.77 140.06 9.11 139.26 10.45 C138.86 11.11 138.46 11.77 138.06 12.44 C135.48 16.73 132.98 21.05 130.51 25.39 C129.45 27.19 128.39 28.98 127.32 30.77 C126.81 31.62 126.3 32.47 125.77 33.35 C124.51 35.39 124.51 35.39 123.51 36.39 C121.53 36.49 119.55 36.51 117.58 36.51 C116.29 36.51 115 36.51 113.67 36.52 C112.23 36.51 110.79 36.51 109.35 36.5 C107.84 36.5 106.33 36.5 104.82 36.5 C100.72 36.51 96.61 36.5 92.51 36.49 C88.22 36.49 83.94 36.49 79.65 36.48 C71.53 36.48 63.41 36.47 55.29 36.46 C46.05 36.45 36.8 36.45 27.56 36.44 C8.54 36.43 -10.48 36.41 -29.49 36.39 C-29.49 32.88 -28.72 31.82 -26.87 28.89 C-24.64 25.3 -22.54 21.68 -20.56 17.95 C-20.08 17.1 -19.6 16.24 -19.11 15.36 C-17.47 12.44 -17.47 12.44 -16.18 9.49 C-12.17 1.6 -8.71 0.12 0 0 Z " fill="#8D251A" transform="translate(863.4948425292969,394.6091613769531)"/>
<path d="M0 0 C1.72 0.02 3.43 0.04 5.15 0.06 C8.7 0.1 12.25 0.14 15.8 0.19 C20.35 0.25 24.91 0.3 29.46 0.34 C32.99 0.38 36.51 0.42 40.03 0.47 C41.71 0.49 43.39 0.51 45.08 0.52 C47.41 0.54 49.74 0.58 52.07 0.61 C52.76 0.62 53.45 0.62 54.16 0.63 C58.92 0.72 58.92 0.72 61.15 2.95 C50.97 20.29 50.97 20.29 46.68 27.41 C45.54 29.3 44.41 31.19 43.28 33.08 C39.76 38.97 36.22 44.85 32.64 50.71 C32.02 51.72 31.4 52.73 30.77 53.77 C29.55 55.76 28.33 57.75 27.11 59.74 C24.04 64.77 21.08 69.83 18.25 74.99 C16.82 77.55 15.25 80 13.65 82.45 C11.08 86.44 8.72 90.47 6.46 94.64 C4.96 97.29 3.32 99.83 1.65 102.39 C-1.58 107.4 -4.31 112.55 -6.85 117.95 C-7.51 117.95 -8.17 117.95 -8.85 117.95 C-8.96 118.51 -9.07 119.07 -9.19 119.65 C-9.94 122.26 -11.06 124.34 -12.41 126.7 C-13.09 127.9 -13.09 127.9 -13.79 129.12 C-14.14 129.72 -14.49 130.33 -14.85 130.95 C-17.05 127.65 -17.1 126.68 -17.09 122.84 C-17.09 121.79 -17.09 120.73 -17.1 119.64 C-17.09 118.49 -17.08 117.33 -17.07 116.13 C-17.07 114.91 -17.08 113.69 -17.08 112.44 C-17.07 109.09 -17.06 105.75 -17.05 102.4 C-17.04 98.91 -17.04 95.41 -17.03 91.92 C-17.03 85.3 -17.01 78.68 -16.99 72.06 C-16.97 64.52 -16.96 56.99 -16.95 49.45 C-16.93 33.95 -16.89 18.45 -16.85 2.95 C-23.78 2.62 -30.71 2.29 -37.85 1.95 C-37.85 1.62 -37.85 1.29 -37.85 0.95 C-25.21 0.15 -12.66 -0.17 0 0 Z " fill="#0A324E" transform="translate(926.84765625,115.05078125)"/>
<path d="M0 0 C10.9 -0.05 21.8 -0.08 32.7 -0.1 C37.76 -0.11 42.82 -0.13 47.89 -0.15 C52.77 -0.17 57.65 -0.18 62.53 -0.19 C64.4 -0.19 66.26 -0.2 68.13 -0.21 C70.73 -0.23 73.34 -0.23 75.95 -0.23 C77.11 -0.24 77.11 -0.24 78.3 -0.25 C82.08 -0.23 83.77 -0.15 87 2 C86.47 2.81 85.93 3.63 85.38 4.46 C80.5 11.96 75.83 19.56 71.36 27.31 C70.77 28.34 70.77 28.34 70.16 29.38 C69.82 29.98 69.47 30.59 69.12 31.21 C68.75 31.8 68.38 32.39 68 33 C67.61 33.69 67.22 34.37 66.82 35.08 C65 37 65 37 62.22 37.49 C61.09 37.48 59.96 37.48 58.8 37.47 C57.52 37.47 56.24 37.48 54.93 37.48 C53.53 37.46 52.14 37.44 50.74 37.43 C49.31 37.42 47.89 37.42 46.46 37.42 C43.47 37.41 40.48 37.39 37.48 37.36 C33.64 37.32 29.8 37.3 25.96 37.29 C22.3 37.28 18.65 37.26 14.99 37.24 C14.29 37.23 13.59 37.23 12.87 37.23 C10.89 37.22 8.92 37.2 6.94 37.18 C5.25 37.16 5.25 37.16 3.53 37.15 C1 37 1 37 0 36 C-0.49 26.88 0.15 17.68 0.73 8.58 C0.78 7.75 0.83 6.93 0.88 6.08 C0.93 5.34 0.97 4.6 1.02 3.84 C1.13 1.9 1.13 1.9 0 0 Z " fill="#8E261B" transform="translate(1086,119)"/>
<path d="M0 0 C7.09 6.58 10.59 13.9 11.24 23.52 C11.45 34.24 10.14 42.63 2.55 50.59 C-2.53 55.21 -7.48 55.54 -14.1 55.34 C-21.18 54.51 -24.95 50.36 -29.52 45.2 C-34.64 37.6 -34.69 26.95 -33.31 18.19 C-31.71 10.87 -28.97 4.75 -23 0 C-15.31 -4.1 -7.7 -4.42 0 0 Z " fill="#F9FCFE" transform="translate(681,687)"/>
<path d="M0 0 C0.33 0 0.66 0 1 0 C1 25.74 1 51.48 1 78 C0.67 77.34 0.34 76.68 0 76 C-1.66 75.3 -3.32 74.64 -5 74 C-6.58 73.12 -8.14 72.2 -9.69 71.25 C-10.56 70.72 -11.42 70.19 -12.32 69.64 C-13.64 68.83 -13.64 68.83 -15 68 C-16.71 66.98 -18.42 65.96 -20.12 64.94 C-24.45 62.34 -28.73 59.69 -33 57 C-32.43 53.19 -31.36 50.56 -29.31 47.31 C-28.83 46.55 -28.36 45.78 -27.86 44.99 C-27.25 44 -26.63 43.02 -26 42 C-23.99 38.67 -22 35.34 -20 32 C-19 30.33 -18 28.67 -17 27 C-16.5 26.18 -16.01 25.35 -15.5 24.5 C-11 17 -11 17 -9.52 14.53 C-8.46 12.76 -7.41 10.99 -6.36 9.22 C-5.83 8.32 -5.3 7.42 -4.75 6.5 C-4.03 5.28 -4.03 5.28 -3.3 4.03 C-2 2 -2 2 0 0 Z " fill="#0A314D" transform="translate(795,182)"/>
<path d="M0 0 C4.71 5.17 7.81 11.89 8.12 18.9 C7.69 24.79 5.93 29.4 1.56 33.44 C-4.36 38.03 -9.06 39.34 -16.5 38.65 C-22.85 36.5 -28.59 33.86 -31.81 27.77 C-34.6 21.47 -34.85 17.23 -32.5 10.65 C-30.42 5.29 -27.26 1.79 -22.5 -1.35 C-16.03 -3.65 -5.8 -4.09 0 0 Z " fill="#020409" transform="translate(840.5,604.3515625)"/>
<path d="M0 0 C0.33 0.66 0.66 1.32 1 2 C2.23 1.99 3.46 1.99 4.73 1.98 C9.29 1.97 13.85 1.95 18.41 1.95 C20.38 1.94 22.36 1.93 24.33 1.92 C27.17 1.91 30 1.91 32.84 1.9 C33.72 1.9 34.61 1.89 35.52 1.89 C41.77 1.89 41.77 1.89 44 3 C42.05 8.48 39.02 13.31 35.99 18.25 C33.85 21.76 31.86 25.15 30.34 28.97 C28.56 32.92 27.37 35.25 24 38 C17.51 39.64 10.75 39.36 4.12 39 C1.94 38.84 1.94 38.84 0 40 C-0.67 30.71 -1.1 21.45 -1.12 12.12 C-1.13 11.26 -1.13 10.4 -1.14 9.51 C-1.14 8.71 -1.13 7.9 -1.13 7.07 C-1.13 6 -1.13 6 -1.13 4.91 C-1 3 -1 3 0 0 Z " fill="#8F271C" transform="translate(1088,184)"/>
<path d="M0 0 C2.22 3.15 2.8 4.97 2.55 8.77 C1.34 12.68 -1.78 14.56 -5.06 16.75 C-5.76 17.23 -6.45 17.7 -7.17 18.2 C-12.84 21.92 -17.15 23.34 -24.06 22.75 C-29.36 20.38 -32.93 17.78 -36.06 12.75 C-36.86 8.44 -36.59 4.95 -34.81 0.94 C-34.24 0.22 -33.66 -0.51 -33.06 -1.25 C-32.51 -1.97 -31.95 -2.69 -31.38 -3.44 C-21.81 -10.94 -8.78 -6.45 0 0 Z " fill="#FAFDFF" transform="translate(294.0625,536.25)"/>
<path d="M0 0 C0.33 0.66 0.66 1.32 1 2 C51.16 2 101.32 2 153 2 C152.67 2.66 152.34 3.32 152 4 C101.51 4 51.02 4 -1 4 C-1 1 -1 1 0 0 Z " fill="#770804" transform="translate(750,569)"/>
<path d="M0 0 C0.29 0.62 0.58 1.24 0.88 1.88 C2.7 5.32 4.57 6.36 8.12 7.62 C9.21 8.02 9.21 8.02 10.32 8.41 C10.87 8.61 11.43 8.8 12 9 C11.36 9.62 10.72 10.24 10.06 10.88 C7.25 15.13 7.19 18.99 7 24 C6.41 23.5 5.83 23 5.22 22.48 C2.95 20.64 2.95 20.64 -0.56 21.25 C-3.96 21.93 -3.96 21.93 -7 23 C-7.08 21.78 -7.16 20.57 -7.25 19.31 C-7.74 15.19 -9.18 13.09 -12 10 C-12 9.34 -12 8.68 -12 8 C-10.11 7.66 -10.11 7.66 -8.19 7.31 C-4.87 6.5 -4.21 6.28 -2.06 3.44 C-1.54 2.23 -1.54 2.23 -1 1 C-0.67 0.67 -0.34 0.34 0 0 Z " fill="#F9FCFE" transform="translate(1030,301)"/>
<path d="M0 0 C1.38 1.29 2.71 2.63 4 4 C4 4.66 4 5.32 4 6 C6.97 6.99 9.94 7.98 13 9 C12.34 9.66 11.68 10.32 11 11 C8.32 15.02 8.68 17.25 9 22 C8.34 21.9 7.67 21.81 6.99 21.71 C0.28 20.8 0.28 20.8 -6 23 C-6.08 21.82 -6.16 20.65 -6.25 19.44 C-6.8 14.85 -8.51 11.86 -11 8 C-9.11 7.69 -9.11 7.69 -7.19 7.38 C-3.52 6.49 -3.17 6.27 -1 2.88 C-0.67 1.93 -0.34 0.98 0 0 Z " fill="#F9FCFE" transform="translate(970,301)"/>
<path d="M0 0 C3 1 3 1 4.94 3 C7.06 5.06 8.14 5.59 11 6 C11 6.66 11 7.32 11 8 C11.66 8.33 12.32 8.66 13 9 C12.34 9.5 11.68 9.99 11 10.5 C8.12 14.1 8.7 16.47 9 21 C8.48 20.84 7.97 20.67 7.44 20.5 C3.12 19.61 -0.82 19.61 -5 21 C-5.37 19.14 -5.37 19.14 -5.75 17.25 C-6.68 13.44 -8 11.6 -11 9 C-11 8.34 -11 7.68 -11 7 C-9.11 6.66 -9.11 6.66 -7.19 6.31 C-3.83 5.5 -3.2 5.26 -1 2.38 C-0.67 1.59 -0.34 0.81 0 0 Z " fill="#F9FCFE" transform="translate(1056,227)"/>
<path d="M0 0 C3 1 3 1 4.81 2.88 C7.32 5.31 9.84 6.56 13 8 C12.53 8.74 12.05 9.49 11.56 10.25 C9.25 14.32 8.87 17.35 9 22 C8.23 21.47 8.23 21.47 7.44 20.94 C3.19 19.31 -0.81 20.6 -5 22 C-5.08 20.78 -5.16 19.57 -5.25 18.31 C-5.74 14.19 -7.18 12.09 -10 9 C-10 8.34 -10 7.68 -10 7 C-7.36 6.67 -4.72 6.34 -2 6 C-1.34 4.02 -0.68 2.04 0 0 Z " fill="#FAFDFF" transform="translate(997,278)"/>
<path d="M0 0 C2 3 2 3 2 6 C4.97 6.99 7.94 7.98 11 9 C10.34 10.32 9.68 11.64 9 13 C7.37 16.52 6.78 19.12 7 23 C6.3 22.65 5.6 22.3 4.88 21.94 C1.47 20.83 -0.54 21.25 -4 22 C-4.99 22 -5.98 22 -7 22 C-7.12 21.46 -7.25 20.93 -7.38 20.38 C-8.48 16.19 -9.59 12.62 -12 9 C-10.76 8.63 -9.52 8.26 -8.25 7.88 C-3.72 6.21 -2.24 4.19 0 0 Z " fill="#F9FCFE" transform="translate(1030,251)"/>
<path d="M0 0 C2 3.75 2 3.75 2 6 C2.93 6.27 3.86 6.54 4.81 6.81 C7.76 7.91 9.06 8.62 11 11 C10.34 11.68 9.68 12.36 9 13.06 C6.56 16.64 6.67 18.76 7 23 C5.92 22.47 5.92 22.47 4.81 21.94 C1.62 20.87 0.19 21.1 -3 22 C-3.76 22.19 -4.53 22.37 -5.31 22.56 C-5.87 22.71 -6.43 22.85 -7 23 C-7.12 21.48 -7.12 21.48 -7.25 19.94 C-7.84 15.62 -9.69 12.65 -12 9 C-10.74 8.61 -9.48 8.22 -8.19 7.81 C-5.02 6.64 -4.14 6.19 -2.06 3.38 C-1.71 2.59 -1.36 1.81 -1 1 C-0.67 0.67 -0.34 0.34 0 0 Z " fill="#F9FCFE" transform="translate(1030,202)"/>
<path d="M0 0 C0.99 0.33 1.98 0.66 3 1 C3.33 1.99 3.66 2.98 4 4 C6.09 5.46 6.09 5.46 8.56 6.69 C9.39 7.12 10.22 7.56 11.07 8.01 C11.7 8.34 12.34 8.66 13 9 C12.34 9.66 11.68 10.32 11 11 C8.32 15.02 8.68 17.25 9 22 C8.41 21.83 7.82 21.66 7.21 21.49 C0.97 19.86 0.97 19.86 -5 22 C-5.19 21.32 -5.39 20.65 -5.59 19.95 C-5.85 19.06 -6.11 18.17 -6.38 17.25 C-6.76 15.93 -6.76 15.93 -7.15 14.58 C-7.92 12.24 -8.84 10.17 -10 8 C-8.08 7.69 -8.08 7.69 -6.12 7.38 C-3.92 6.92 -3.92 6.92 -2 6 C-0.39 3.01 -0.39 3.01 0 0 Z " fill="#F9FCFE" transform="translate(1056,179)"/>
<path d="M0 0 C2 3.75 2 3.75 2 6 C4.31 6.66 6.62 7.32 9 8 C9 8.66 9 9.32 9 10 C9.99 10.33 10.98 10.66 12 11 C11.17 11.47 10.35 11.95 9.5 12.44 C6.66 15.35 6.66 15.89 6.69 19.75 C6.77 21.17 6.86 22.59 7 24 C6.01 23.34 5.02 22.68 4 22 C2.05 21.72 2.05 21.72 0 21.81 C-0.68 21.82 -1.36 21.83 -2.06 21.83 C-4.22 21.94 -4.22 21.94 -7 23 C-7.12 21.48 -7.12 21.48 -7.25 19.94 C-7.84 15.62 -9.69 12.65 -12 9 C-10.76 8.63 -9.52 8.26 -8.25 7.88 C-3.72 6.21 -2.24 4.19 0 0 Z " fill="#F8FBFD" transform="translate(999,225)"/>
<path d="M0 0 C0.68 0.74 1.36 1.49 2.06 2.25 C5.03 5.24 8.29 7.03 12 9 C11.34 9.64 10.68 10.28 10 10.94 C7.32 15.04 7.63 18.23 8 23 C7.13 22.46 6.27 21.93 5.38 21.38 C2.08 19.65 2.08 19.65 -1.25 20.75 C-2.84 21.47 -4.43 22.22 -6 23 C-6.08 21.78 -6.16 20.57 -6.25 19.31 C-6.74 15.19 -8.18 13.09 -11 10 C-11 9.34 -11 8.68 -11 8 C-8.36 7.67 -5.72 7.34 -3 7 C-2.69 6.03 -2.38 5.06 -2.06 4.06 C-1 1 -1 1 0 0 Z " fill="#F9FCFE" transform="translate(998,326)"/>
<path d="M0 0 C3 1 3 1 4.81 2.88 C7.32 5.31 9.84 6.56 13 8 C12.34 8.64 11.68 9.28 11 9.94 C8.32 14.04 8.63 17.23 9 22 C8.13 21.46 7.27 20.93 6.38 20.38 C3.08 18.65 3.08 18.65 -0.25 19.75 C-1.84 20.47 -3.43 21.22 -5 22 C-5.06 21.01 -5.12 20.02 -5.19 19 C-5.82 14.28 -8.31 10.83 -11 7 C-10.37 6.83 -9.75 6.66 -9.1 6.48 C-8.28 6.24 -7.47 6 -6.62 5.75 C-5.81 5.52 -5 5.29 -4.16 5.05 C-1.54 3.78 -1.01 2.68 0 0 Z " fill="#F9FCFE" transform="translate(1056,129)"/>
<path d="M0 0 C2.12 0.95 3.76 1.75 5.38 3.44 C7.62 5.6 10.19 6.69 13 8 C12.34 8.64 11.68 9.28 11 9.94 C8.32 14.04 8.63 17.23 9 22 C7.98 21.47 7.98 21.47 6.94 20.94 C2.77 19.61 -1.07 20.03 -5 22 C-6 19 -6 19 -6.38 15.5 C-7.01 11.95 -7.35 11.19 -10 9 C-10 8.34 -10 7.68 -10 7 C-7.36 6.67 -4.72 6.34 -2 6 C-1.34 4.02 -0.68 2.04 0 0 Z " fill="#FAFDFF" transform="translate(940,278)"/>
<path d="M0 0 C1.5 1.38 1.5 1.38 3 3 C3 3.66 3 4.32 3 5 C5.31 5.66 7.62 6.32 10 7 C10 7.66 10 8.32 10 9 C10.99 9.33 11.98 9.66 13 10 C12.36 10.31 11.72 10.62 11.06 10.94 C7.9 14.1 8.18 17.68 8 22 C7.41 21.92 6.82 21.83 6.21 21.75 C1.9 21.19 -1.76 20.77 -6 22 C-7 20 -7 20 -6.81 17.81 C-7.08 13.77 -8.86 11.42 -11 8 C-9.11 7.69 -9.11 7.69 -7.19 7.38 C-3.52 6.49 -3.17 6.27 -1 2.88 C-0.67 1.93 -0.34 0.98 0 0 Z " fill="#F9FCFE" transform="translate(941,326)"/>
<path d="M0 0 C0.66 0 1.32 0 2 0 C2.35 0.93 2.7 1.86 3.06 2.81 C5.6 6.99 7.47 7.46 12 9 C10.12 12.88 10.12 12.88 9 14 C8.77 15.51 8.59 17.04 8.44 18.56 C8.35 19.39 8.27 20.22 8.18 21.07 C8.09 22.02 8.09 22.02 8 23 C7.3 22.65 6.6 22.3 5.88 21.94 C1.9 20.64 -1.28 21.14 -5 23 C-5.19 22.39 -5.39 21.77 -5.59 21.14 C-5.85 20.33 -6.11 19.52 -6.38 18.69 C-6.63 17.89 -6.89 17.09 -7.15 16.26 C-7.99 13.77 -7.99 13.77 -10 11 C-10 10.01 -10 9.02 -10 8 C-7.36 7.67 -4.72 7.34 -2 7 C-1.34 4.69 -0.68 2.38 0 0 Z " fill="#F9FCFE" transform="translate(970,251)"/>
<path d="M0 0 C1.5 1.38 1.5 1.38 3 3 C3 3.66 3 4.32 3 5 C4.67 5.4 4.67 5.4 6.38 5.81 C10 7 10 7 12 10 C11.34 10.47 10.68 10.95 10 11.44 C7.1 15.15 7.65 18.45 8 23 C7.67 22.34 7.34 21.68 7 21 C2 19.82 -1.27 20.04 -6 22 C-6.12 20.48 -6.12 20.48 -6.25 18.94 C-6.84 14.62 -8.69 11.65 -11 8 C-9.74 7.61 -8.48 7.22 -7.19 6.81 C-3.98 5.63 -3.12 5.16 -1 2.31 C-0.5 1.17 -0.5 1.17 0 0 Z " fill="#F9FCFE" transform="translate(998,179)"/>
<path d="M0 0 C3 3 3 3 4.31 4.5 C6.62 6.55 9.21 7.7 12 9 C11.34 10.03 10.68 11.06 10 12.12 C8.03 15.54 7.61 18.02 8 22 C6.8 21.63 5.61 21.26 4.38 20.88 C0.35 19.84 -2.15 20.27 -6 22 C-6.98 18.95 -6.98 17.05 -6 14 C-6.66 14 -7.32 14 -8 14 C-8.29 13.38 -8.58 12.76 -8.88 12.12 C-9.94 9.87 -9.94 9.87 -12 8 C-11.39 7.93 -10.77 7.85 -10.14 7.77 C-7.63 7.36 -5.38 6.91 -3 6 C-0.85 3.05 -0.85 3.05 0 0 Z " fill="#F9FCFE" transform="translate(1029,153)"/>
<path d="M0 0 C2 1 4 2 6 3 C7.93 3.11 9.85 3.15 11.78 3.16 C13.01 3.17 14.25 3.18 15.51 3.19 C16.89 3.19 18.26 3.2 19.63 3.21 C21.07 3.21 22.51 3.22 23.95 3.24 C27.86 3.26 31.77 3.28 35.68 3.3 C39.77 3.33 43.86 3.35 47.94 3.38 C55.69 3.43 63.43 3.47 71.17 3.52 C79.98 3.57 88.79 3.62 97.61 3.68 C115.74 3.79 133.87 3.9 152 4 C152 4.33 152 4.66 152 5 C101.51 5 51.02 5 -1 5 C-1 2 -1 2 0 0 Z " fill="#020409" transform="translate(564,568)"/>
<path d="M0 0 C0.66 0.66 1.32 1.32 2 2 C4.42 2.3 4.42 2.3 7.27 2.25 C8.95 2.25 8.95 2.25 10.66 2.26 C12.5 2.25 12.5 2.25 14.39 2.24 C16.33 2.25 16.33 2.25 18.31 2.25 C21.86 2.25 25.41 2.25 28.96 2.24 C32.67 2.23 36.39 2.23 40.1 2.23 C46.34 2.23 52.57 2.22 58.81 2.21 C66.02 2.19 73.24 2.18 80.45 2.19 C87.39 2.19 94.32 2.18 101.25 2.17 C104.21 2.17 107.16 2.17 110.11 2.17 C114.24 2.17 118.36 2.16 122.48 2.15 C123.71 2.15 124.94 2.15 126.21 2.15 C127.33 2.14 128.45 2.14 129.6 2.13 C130.58 2.13 131.55 2.13 132.56 2.13 C135.14 2.1 135.14 2.1 138 1 C138.99 1.99 139.98 2.98 141 4 C94.14 4 47.28 4 -1 4 C-1 1 -1 1 0 0 Z " fill="#770804" transform="translate(678,377)"/>
<path d="M0 0 C3.97 0.59 6.82 1.81 10.25 3.88 C11.56 4.64 11.56 4.64 12.89 5.43 C15 7 15 7 16 10 C11.34 10.92 6.85 11.12 2.12 11.06 C1.09 11.06 1.09 11.06 0.04 11.05 C-1.64 11.04 -3.32 11.02 -5 11 C-4.27 6.49 -2.68 3.72 0 0 Z " fill="#8F271C" transform="translate(740,273)"/>
<path d="M0 0 C2 0.05 2 0.05 4.44 0.31 C5.64 0.43 5.64 0.43 6.87 0.55 C9 1 9 1 11 3 C5.29 7.25 -0.63 10.82 -7 14 C-5.71 8.62 -4.04 4.04 0 0 Z " fill="#0B304A" transform="translate(666,398)"/>
</svg>
