<svg width="54" height="54" viewBox="0 0 54 54" fill="none" xmlns="http://www.w3.org/2000/svg">
<path d="M27 53.3672C41.5622 53.3672 53.3672 41.5622 53.3672 27C53.3672 12.4378 41.5622 0.632812 27 0.632812C12.4378 0.632812 0.632812 12.4378 0.632812 27C0.632812 41.5622 12.4378 53.3672 27 53.3672Z" fill="url(#paint0_linear_1_24)"/>
<path d="M32.6016 12.3516H21.4102C16.418 12.3516 12.3633 16.4062 12.3633 21.3984V32.5898C12.3633 37.582 16.418 41.6367 21.4102 41.6367H32.6016C37.5938 41.6367 41.6484 37.582 41.6484 32.5898V21.3984C41.6484 16.4062 37.5938 12.3516 32.6016 12.3516ZM38.3789 32.6016C38.3789 35.7891 35.7891 38.3906 32.5898 38.3906H21.3984C18.2109 38.3906 15.6094 35.8008 15.6094 32.6016V21.4102C15.6094 18.2227 18.1992 15.6211 21.3984 15.6211H32.5898C35.7773 15.6211 38.3789 18.2109 38.3789 21.4102V32.6016Z" fill="white"/>
<path d="M27 19.5117C22.875 19.5117 19.5117 22.875 19.5117 27C19.5117 31.125 22.875 34.4883 27 34.4883C31.125 34.4883 34.4883 31.125 34.4883 27C34.4883 22.875 31.125 19.5117 27 19.5117ZM27 31.5469C24.4922 31.5469 22.4531 29.5078 22.4531 27C22.4531 24.4922 24.4922 22.4531 27 22.4531C29.5078 22.4531 31.5469 24.4922 31.5469 27C31.5469 29.5078 29.5078 31.5469 27 31.5469Z" fill="white"/>
<path d="M35.0586 20.3327C35.7485 20.2208 36.2171 19.5709 36.1053 18.881C35.9934 18.1911 35.3435 17.7225 34.6536 17.8343C33.9637 17.9462 33.4951 18.5961 33.6069 19.286C33.7188 19.9759 34.3687 20.4445 35.0586 20.3327Z" fill="white"/>
<defs>
<linearGradient id="paint0_linear_1_24" x1="6.92332" y1="47.0767" x2="44.394" y2="9.60598" gradientUnits="userSpaceOnUse">
<stop stop-color="#FEE411"/>
<stop offset="0.0518459" stop-color="#FEDB16"/>
<stop offset="0.1381" stop-color="#FEC125"/>
<stop offset="0.2481" stop-color="#FE983D"/>
<stop offset="0.3762" stop-color="#FE5F5E"/>
<stop offset="0.5" stop-color="#FE2181"/>
<stop offset="1" stop-color="#9000DC"/>
</linearGradient>
</defs>
</svg>
